  0
SECTION
  2
HEADER
  9
$ACADVER
  1
AC1009
  9
$DWGCODEPAGE
  3
ansi_1252
  9
$INSBASE
 10
0.0
 20
0.0
 30
0.0
  9
$EXTMIN
 10
-44.78925278325238
 20
-39.54224158750853
 30
0.0
  9
$EXTMAX
 10
115.1456002146131
 20
22.0
 30
0.0
  9
$LIMMIN
 10
0.0
 20
0.0
  9
$LIMMAX
 10
420.0
 20
297.0
  9
$ORTHOMODE
 70
     0
  9
$REGENMODE
 70
     1
  9
$FILLMODE
 70
     1
  9
$QTEXTMODE
 70
     0
  9
$MIRRTEXT
 70
     0
  9
$DRAGMODE
 70
     2
  9
$LTSCALE
 40
1.0
  9
$OSMODE
 70
     0
  9
$ATTMODE
 70
     1
  9
$TEXTSIZE
 40
3.0
  9
$TRACEWID
 40
1.0
  9
$TEXTSTYLE
  7
STANDARD
  9
$CLAYER
  8
0
  9
$CELTYPE
  6
CONTINUOUS
  9
$CECOLOR
 62
     7
  9
$DIMSCALE
 40
1.0
  9
$DIMASZ
 40
2.5
  9
$DIMEXO
 40
0.625
  9
$DIMDLI
 40
3.75
  9
$DIMRND
 40
0.0
  9
$DIMDLE
 40
0.0
  9
$DIMEXE
 40
1.25
  9
$DIMTP
 40
0.0
  9
$DIMTM
 40
0.0
  9
$DIMTXT
 40
2.5
  9
$DIMCEN
 40
2.5
  9
$DIMTSZ
 40
0.0
  9
$DIMTOL
 70
     0
  9
$DIMLIM
 70
     0
  9
$DIMTIH
 70
     0
  9
$DIMTOH
 70
     0
  9
$DIMSE1
 70
     0
  9
$DIMSE2
 70
     0
  9
$DIMTAD
 70
     1
  9
$DIMZIN
 70
     8
  9
$DIMBLK
  1
OPEN30
  9
$DIMASO
 70
     1
  9
$DIMSHO
 70
     1
  9
$DIMPOST
  1

  9
$DIMAPOST
  1

  9
$DIMALT
 70
     0
  9
$DIMALTD
 70
     3
  9
$DIMALTF
 40
0.03937007874016
  9
$DIMLFAC
 40
1.0
  9
$DIMTOFL
 70
     1
  9
$DIMTVP
 40
0.0
  9
$DIMTIX
 70
     0
  9
$DIMSOXD
 70
     0
  9
$DIMSAH
 70
     0
  9
$DIMBLK1
  1

  9
$DIMBLK2
  1

  9
$DIMSTYLE
  2
MISUMI
  9
$DIMCLRD
 70
   137
  9
$DIMCLRE
 70
   137
  9
$DIMCLRT
 70
   137
  9
$DIMTFAC
 40
1.0
  9
$DIMGAP
 40
0.625
  9
$LUNITS
 70
     2
  9
$LUPREC
 70
     2
  9
$SKETCHINC
 40
1.0
  9
$FILLETRAD
 40
1.0
  9
$AUNITS
 70
     0
  9
$AUPREC
 70
     0
  9
$MENU
  1
.
  9
$ELEVATION
 40
0.0
  9
$PELEVATION
 40
0.0
  9
$THICKNESS
 40
0.0
  9
$LIMCHECK
 70
     0
  9
$CHAMFERA
 40
0.5
  9
$CHAMFERB
 40
0.5
  9
$SKPOLY
 70
     0
  9
$TDCREATE
 40
2455135.572069711
  9
$TDUPDATE
 40
2456752.744883553
  9
$TDINDWG
 40
0.2064429977
  9
$TDUSRTIMER
 40
0.2064428125
  9
$USRTIMER
 70
     1
  9
$ANGBASE
 50
0.0
  9
$ANGDIR
 70
     0
  9
$PDMODE
 70
    35
  9
$PDSIZE
 40
0.0
  9
$PLINEWID
 40
0.0
  9
$COORDS
 70
     2
  9
$SPLFRAME
 70
     0
  9
$SPLINETYPE
 70
     6
  9
$SPLINESEGS
 70
     8
  9
$ATTDIA
 70
     0
  9
$ATTREQ
 70
     1
  9
$HANDLING
 70
     1
  9
$HANDSEED
  5
E078
  9
$SURFTAB1
 70
     6
  9
$SURFTAB2
 70
     6
  9
$SURFTYPE
 70
     6
  9
$SURFU
 70
     6
  9
$SURFV
 70
     6
  9
$UCSNAME
  2

  9
$UCSORG
 10
0.0
 20
0.0
 30
0.0
  9
$UCSXDIR
 10
1.0
 20
0.0
 30
0.0
  9
$UCSYDIR
 10
0.0
 20
1.0
 30
0.0
  9
$PUCSNAME
  2

  9
$PUCSORG
 10
0.0
 20
0.0
 30
0.0
  9
$PUCSXDIR
 10
1.0
 20
0.0
 30
0.0
  9
$PUCSYDIR
 10
0.0
 20
1.0
 30
0.0
  9
$USERI1
 70
     0
  9
$USERI2
 70
     0
  9
$USERI3
 70
     0
  9
$USERI4
 70
     0
  9
$USERI5
 70
     0
  9
$USERR1
 40
0.0
  9
$USERR2
 40
0.0
  9
$USERR3
 40
0.0
  9
$USERR4
 40
0.0
  9
$USERR5
 40
0.0
  9
$WORLDVIEW
 70
     1
  9
$SHADEDGE
 70
     3
  9
$SHADEDIF
 70
    70
  9
$TILEMODE
 70
     1
  9
$MAXACTVP
 70
    64
  9
$PLIMCHECK
 70
     0
  9
$PEXTMIN
 10
25.69999999999999
 20
19.5
 30
0.0
  9
$PEXTMAX
 10
231.3
 20
175.5
 30
0.0
  9
$PLIMMIN
 10
-20.0
 20
-7.5
  9
$PLIMMAX
 10
277.0
 20
202.5
  9
$UNITMODE
 70
     0
  9
$VISRETAIN
 70
     1
  9
$PLINEGEN
 70
     0
  9
$PSLTSCALE
 70
     1
  0
ENDSEC
  0
SECTION
  2
TABLES
  0
TABLE
  2
VPORT
 70
     1
  0
VPORT
  2
*ACTIVE
 70
     0
 10
0.0
 20
0.0
 11
1.0
 21
1.0
 12
0.00000000000001
 22
0.0
 13
0.0
 23
0.0
 14
10.0
 24
10.0
 15
10.0
 25
10.0
 16
0.0
 26
0.0
 36
1.0
 17
0.0
 27
0.0
 37
0.0
 40
63.35173144876325
 41
1.35244922341697
 42
50.0
 43
0.0
 44
0.0
 50
0.0
 51
0.0
 71
     0
 72
  1000
 73
     1
 74
     3
 75
     0
 76
     0
 77
     0
 78
     0
  0
ENDTAB
  0
TABLE
  2
LTYPE
 70
     5
  0
LTYPE
  2
CONTINUOUS
 70
     0
  3
Solid line
 72
    65
 73
     0
 40
0.0
  0
LTYPE
  2
CENTER
 70
     0
  3
Center ____ _ ____ _ ____ _ ____ _ ____ _ ____
 72
    65
 73
     4
 40
50.8
 49
31.75
 49
-6.35
 49
6.35
 49
-6.35
  0
LTYPE
  2
DASHED
 70
     0
  3
Dashed __ __ __ __ __ __ __ __ __ __ __ __ __ _
 72
    65
 73
     2
 40
19.05
 49
12.7
 49
-6.35
  0
LTYPE
  2
PHANTOM
 70
     0
  3
Phantom ______  __  __  ______  __  __  ______
 72
    65
 73
     6
 40
63.49999999999999
 49
31.75
 49
-6.35
 49
6.35
 49
-6.35
 49
6.35
 49
-6.35
  0
LTYPE
  2
DASHED2
 70
     0
  3
_ _ _ _ _ _ _ _ _ _ _ _ _ _ _ _ _ _ _ _ _ _ _ _
 72
    65
 73
     2
 40
0.375
 49
0.25
 49
-0.125
  0
ENDTAB
  0
TABLE
  2
LAYER
 70
     3
  0
LAYER
  2
0
 70
     0
 62
     7
  6
CONTINUOUS
  0
LAYER
  2
CENTER
 70
     0
 62
     1
  6
CENTER
  0
LAYER
  2
DEFPOINTS
 70
     0
 62
     7
  6
CONTINUOUS
  0
ENDTAB
  0
TABLE
  2
STYLE
 70
     1
  0
STYLE
  2
STANDARD
 70
     0
 40
3.0
 41
1.0
 50
0.0
 71
     0
 42
3.0
  3
txt.shx
  4
bigfont.shx
  0
ENDTAB
  0
TABLE
  2
VIEW
 70
     0
  0
ENDTAB
  0
TABLE
  2
UCS
 70
     0
  0
ENDTAB
  0
TABLE
  2
APPID
 70
    10
  0
APPID
  2
ACAD
 70
     0
  0
APPID
  2
ACAD_MLEADERVER
 70
     0
  0
APPID
  2
ACAD_EXEMPT_FROM_CAD_STAND
 70
     0
  0
APPID
  2
ACDBBLOCKREPETAG
 70
     0
  0
APPID
  2
ACAD_DSTYLE_DIMJOGGED_JOGA
 70
     0
  0
APPID
  2
ACAECLAYERSTANDARD
 70
     0
  0
APPID
  2
GENIUS_GENODEF_13
 70
     0
  0
APPID
  2
GENIUS_GENOBJ-N-FIL_13
 70
     0
  0
APPID
  2
ACAD_PSEXT
 70
     0
  0
APPID
  2
ACAD_DSTYLE_DIMRADIAL_EXTE
 70
     0
  0
ENDTAB
  0
TABLE
  2
DIMSTYLE
 70
     1
  0
DIMSTYLE
  2
MISUMI
 70
     0
  3

  4

  5
OPEN30
  6

  7

 40
1.0
 41
2.5
 42
0.625
 43
3.75
 44
1.25
 45
0.0
 46
0.0
 47
0.0
 48
0.0
140
2.5
141
2.5
142
0.0
143
0.03937007874016
144
1.0
145
0.0
146
1.0
147
0.625
 71
     0
 72
     0
 73
     0
 74
     0
 75
     0
 76
     0
 77
     1
 78
     8
170
     0
171
     3
172
     1
173
     0
174
     0
175
     0
176
   137
177
   137
178
   137
  0
ENDTAB
  0
ENDSEC
  0
SECTION
  2
BLOCKS
  0
BLOCK
  8
0
  2
$MODEL_SPACE
 70
     0
 10
0.0
 20
0.0
 30
0.0
  3
$MODEL_SPACE
  1

  0
ENDBLK
  5
21
  8
0
  0
BLOCK
 67
     1
  8
0
  2
$PAPER_SPACE
 70
     0
 10
0.0
 20
0.0
 30
0.0
  3
$PAPER_SPACE
  1

  0
ENDBLK
  5
58
 67
     1
  8
0
  0
BLOCK
  8
0
  2
_OPEN30
 70
     0
 10
0.0
 20
0.0
 30
0.0
  3
_OPEN30
  1

  0
LINE
  5
D7
  8
0
  6
BYBLOCK
 62
     0
 10
-1.0
 20
0.26794919
 30
0.0
 11
0.0
 21
0.0
 31
0.0
  0
LINE
  5
D8
  8
0
  6
BYBLOCK
 62
     0
 10
0.0
 20
0.0
 30
0.0
 11
-1.0
 21
-0.26794919
 31
0.0
  0
LINE
  5
D9
  8
0
  6
BYBLOCK
 62
     0
 10
0.0
 20
0.0
 30
0.0
 11
-1.0
 21
0.0
 31
0.0
  0
ENDBLK
  5
DB
  8
0
 62
     7
  0
BLOCK
  8
0
  2
*U1
 70
     1
 10
0.0
 20
0.0
 30
0.0
  3
*U1
  1

  0
TEXT
  5
7DD3
  8
0
  6
CONTINUOUS
 62
     7
 10
-44.78925278325238
 20
-35.22716448572103
 30
0.0
 40
3.0
  1
NFS5-4080-L50
  0
ENDBLK
  5
7DD5
  8
0
 62
     7
  0
BLOCK
  8
0
  2
*U2
 70
     1
 10
0.0
 20
0.0
 30
0.0
  3
*U2
  1

  0
TEXT
  5
7DD7
  8
0
  6
CONTINUOUS
 62
     7
 10
-44.78925278325238
 20
-39.54224158750853
 30
0.0
 40
3.0
  1
NFS5-4080
  0
ENDBLK
  5
7DD9
  8
0
 62
     7
  0
ENDSEC
  0
SECTION
  2
ENTITIES
  0
LINE
  5
78D8
  8
CENTER
  6
CENTER
 62
     1
 10
-30.00000000000001
 20
-4.0
 30
0.0
 11
-30.0
 21
-16.0
 31
0.0
  0
LINE
  5
78D9
  8
CENTER
  6
CENTER
 62
     1
 10
-24.0
 20
-10.0
 30
0.0
 11
-36.0
 21
-10.0
 31
0.0
  0
LINE
  5
78DD
  8
0
  6
CONTINUOUS
 62
     7
 10
-40.0
 20
6.7
 30
0.0
 11
-40.0
 21
-6.7
 31
0.0
  0
LINE
  5
78E0
  8
0
  6
CONTINUOUS
 62
     7
 10
-26.0
 20
-9.0
 30
0.0
 11
-26.0
 21
-12.52512626584708
 31
0.0
  0
LINE
  5
78E1
  8
0
  6
CONTINUOUS
 62
     7
 10
-34.0
 20
-7.06066017177982
 30
0.0
 11
-34.0
 21
-9.34641016151378
 31
0.0
  0
LINE
  5
78E2
  8
0
  6
CONTINUOUS
 62
     7
 10
-29.0
 20
-6.0
 30
0.0
 11
-32.52512626584709
 21
-6.0
 31
0.0
  0
LINE
  5
78E7
  8
0
  6
CONTINUOUS
 62
     7
 10
-38.0
 20
-4.0
 30
0.0
 11
-38.0
 21
-6.7
 31
0.0
  0
LINE
  5
78E8
  8
0
  6
CONTINUOUS
 62
     7
 10
-38.3
 20
-7.0
 30
0.0
 11
-39.7
 21
-7.0
 31
0.0
  0
LINE
  5
78E9
  8
0
  6
CONTINUOUS
 62
     7
 10
-38.3
 20
-13.0
 30
0.0
 11
-39.7
 21
-13.0
 31
0.0
  0
LINE
  5
78EB
  8
0
  6
CONTINUOUS
 62
     7
 10
-37.06066017177983
 20
-16.0
 30
0.0
 11
-38.0
 21
-16.0
 31
0.0
  0
LINE
  5
78EC
  8
0
  6
CONTINUOUS
 62
     7
 10
-38.0
 20
-13.3
 30
0.0
 11
-38.0
 21
-16.0
 31
0.0
  0
LINE
  5
78ED
  8
0
  6
CONTINUOUS
 62
     7
 10
-40.0
 20
-13.3
 30
0.0
 11
-40.0
 21
-19.0
 31
0.0
  0
LINE
  5
78F1
  8
0
  6
CONTINUOUS
 62
     7
 10
-37.06066017177982
 20
-4.0
 30
0.0
 11
-38.0
 21
-4.0
 31
0.0
  0
LINE
  5
78F6
  8
0
  6
CONTINUOUS
 62
     7
 10
-33.93301270189223
 20
-10.40358983848622
 30
0.0
 11
-33.7
 21
-10.0
 31
0.0
  0
LINE
  5
78F7
  8
0
  6
CONTINUOUS
 62
     7
 10
-33.93301270189223
 20
-9.59641016151378
 30
0.0
 11
-33.7
 21
-10.0
 31
0.0
  0
LINE
  5
78FC
  8
0
  6
CONTINUOUS
 62
     7
 10
-34.0
 20
-12.5
 30
0.0
 11
-34.0
 21
-12.93933982822017
 31
0.0
  0
LINE
  5
7900
  8
0
  6
CONTINUOUS
 62
     7
 10
-34.0
 20
-7.06066017177982
 30
0.0
 11
-37.06066017177983
 21
-4.0
 31
0.0
  0
LINE
  5
7901
  8
0
  6
CONTINUOUS
 62
     7
 10
-34.0
 20
-12.93933982822017
 30
0.0
 11
-37.06066017177983
 21
-16.0
 31
0.0
  0
LINE
  5
7929
  8
0
  6
CONTINUOUS
 62
     7
 10
-34.0
 20
-12.5
 30
0.0
 11
-33.75097659248408
 21
-11.21888562879331
 31
0.0
  0
ARC
  5
792A
  8
0
  6
CONTINUOUS
 62
     7
 10
-33.5
 20
-10.65358983848622
 30
0.0
 40
0.5
 50
149.9999999999998
 51
210.0000000000001
  0
LINE
  5
792B
  8
0
  6
CONTINUOUS
 62
     7
 10
-33.93301270189223
 20
-10.90358983848622
 30
0.0
 11
-33.75097659248408
 21
-11.21888562879331
 31
0.0
  0
ARC
  5
7933
  8
0
  6
CONTINUOUS
 62
     7
 10
-33.5
 20
-9.34641016151378
 30
0.0
 40
0.5
 50
180.0
 51
210.0000000000001
  0
ARC
  5
7934
  8
0
  6
CONTINUOUS
 62
     7
 10
-38.3
 20
-6.7
 30
0.0
 40
0.3
 50
270.0
 51
0.0
  0
ARC
  5
7935
  8
0
  6
CONTINUOUS
 62
     7
 10
-39.7
 20
-6.7
 30
0.0
 40
0.3
 50
180.0
 51
270.0
  0
ARC
  5
7936
  8
0
  6
CONTINUOUS
 62
     7
 10
-38.3
 20
-13.3
 30
0.0
 40
0.3
 50
0.0
 51
90.0
  0
ARC
  5
7937
  8
0
  6
CONTINUOUS
 62
     7
 10
-39.7
 20
-13.3
 30
0.0
 40
0.3
 50
90.0
 51
180.0
  0
LINE
  5
7952
  8
0
  6
CONTINUOUS
 62
     7
 10
38.99999999999998
 20
-20.0
 30
0.0
 11
33.29999999999998
 21
-20.0
 31
0.0
  0
LINE
  5
7954
  8
0
  6
CONTINUOUS
 62
     7
 10
-33.23223304703363
 20
-5.70710678118655
 30
0.0
 11
-36.5
 21
-2.43933982822018
 31
0.0
  0
CIRCLE
  5
7957
  8
0
  6
CONTINUOUS
 62
     7
 10
-30.0
 20
-10.0
 30
0.0
 40
2.1
  0
ARC
  5
795B
  8
0
  6
CONTINUOUS
 62
     7
 10
-39.0
 20
-19.0
 30
0.0
 40
1.0
 50
180.0
 51
270.0
  0
ARC
  5
7963
  8
0
  6
CONTINUOUS
 62
     7
 10
-29.0
 20
-9.0
 30
0.0
 40
3.0
 50
0.0
 51
90.0
  0
LINE
  5
7A00
  8
CENTER
  6
CENTER
 62
     1
 10
42.0
 20
0.0
 30
0.0
 11
-42.0
 21
0.0
 31
0.0
  0
LINE
  5
7A01
  8
CENTER
  6
CENTER
 62
     1
 10
30.0
 20
-4.0
 30
0.0
 11
29.99999999999998
 21
-16.0
 31
0.0
  0
LINE
  5
7A02
  8
0
  6
CONTINUOUS
 62
     7
 10
34.0
 20
-7.06066017177982
 30
0.0
 11
34.0
 21
-7.49999999999996
 31
0.0
  0
LINE
  5
7A03
  8
0
  6
CONTINUOUS
 62
     7
 10
33.99999999999999
 20
-10.65358983848622
 30
0.0
 11
33.99999999999999
 21
-12.93933982822018
 31
0.0
  0
LINE
  5
7A04
  8
0
  6
CONTINUOUS
 62
     7
 10
26.0
 20
-9.0
 30
0.0
 11
26.0
 21
-12.52512626584709
 31
0.0
  0
ARC
  5
7A05
  8
0
  6
CONTINUOUS
 62
     7
 10
29.0
 20
-9.0
 30
0.0
 40
3.0
 50
90.0
 51
180.0
  0
LINE
  5
7A06
  8
0
  6
CONTINUOUS
 62
     7
 10
40.0
 20
6.70000000000001
 30
0.0
 11
40.0
 21
-6.70000000000001
 31
0.0
  0
ARC
  5
7A07
  8
0
  6
CONTINUOUS
 62
     7
 10
39.7
 20
-6.70000000000001
 30
0.0
 40
0.3
 50
270.0
 51
0.0
  0
LINE
  5
7A08
  8
0
  6
CONTINUOUS
 62
     7
 10
40.0
 20
-13.30000000000001
 30
0.0
 11
39.99999999999999
 21
-19.00000000000001
 31
0.0
  0
LINE
  5
7A09
  8
0
  6
CONTINUOUS
 62
     7
 10
38.0
 20
-4.00000000000001
 30
0.0
 11
38.0
 21
-6.7
 31
0.0
  0
ARC
  5
7A0A
  8
0
  6
CONTINUOUS
 62
     7
 10
38.3
 20
-6.70000000000001
 30
0.0
 40
0.3
 50
180.0
 51
270.0
  0
LINE
  5
7A0B
  8
0
  6
CONTINUOUS
 62
     7
 10
38.0
 20
-13.30000000000001
 30
0.0
 11
37.99999999999999
 21
-16.0
 31
0.0
  0
ARC
  5
7A0C
  8
0
  6
CONTINUOUS
 62
     7
 10
38.3
 20
-13.30000000000001
 30
0.0
 40
0.3
 50
90.0
 51
180.0
  0
LINE
  5
7A0D
  8
CENTER
  6
CENTER
 62
     1
 10
24.0
 20
-10.0
 30
0.0
 11
35.99999999999999
 21
-10.0
 31
0.0
  0
LINE
  5
7A0E
  8
0
  6
CONTINUOUS
 62
     7
 10
37.06066017177982
 20
-16.0
 30
0.0
 11
37.99999999999999
 21
-16.0
 31
0.0
  0
LINE
  5
7A0F
  8
0
  6
CONTINUOUS
 62
     7
 10
37.06066017177982
 20
-4.00000000000001
 30
0.0
 11
38.0
 21
-4.00000000000001
 31
0.0
  0
LINE
  5
7A10
  8
0
  6
CONTINUOUS
 62
     7
 10
38.3
 20
-13.0
 30
0.0
 11
39.7
 21
-13.0
 31
0.0
  0
ARC
  5
7A11
  8
0
  6
CONTINUOUS
 62
     7
 10
39.7
 20
-13.30000000000001
 30
0.0
 40
0.3
 50
0.0
 51
90.0
  0
LINE
  5
7A12
  8
0
  6
CONTINUOUS
 62
     7
 10
38.3
 20
-7.00000000000001
 30
0.0
 11
39.7
 21
-7.00000000000001
 31
0.0
  0
LINE
  5
7A13
  8
0
  6
CONTINUOUS
 62
     7
 10
29.0
 20
-6.0
 30
0.0
 11
32.52512626584708
 21
-6.0
 31
0.0
  0
ARC
  5
7A17
  8
0
  6
CONTINUOUS
 62
     7
 10
38.99999999999998
 20
-19.00000000000001
 30
0.0
 40
1.0
 50
270.0
 51
0.0
  0
LINE
  5
7A1B
  8
0
  6
CONTINUOUS
 62
     7
 10
33.99999999999999
 20
-12.93933982822018
 30
0.0
 11
37.06066017177982
 21
-16.0
 31
0.0
  0
LINE
  5
7A1C
  8
0
  6
CONTINUOUS
 62
     7
 10
34.0
 20
-7.06066017177982
 30
0.0
 11
37.06066017177982
 21
-4.00000000000001
 31
0.0
  0
LINE
  5
7A1D
  8
0
  6
CONTINUOUS
 62
     7
 10
33.23223304703363
 20
-5.70710678118655
 30
0.0
 11
36.5
 21
-2.43933982822019
 31
0.0
  0
CIRCLE
  5
7A37
  8
0
  6
CONTINUOUS
 62
     7
 10
30.0
 20
-10.0
 30
0.0
 40
2.1
  0
LINE
  5
7A3D
  8
0
  6
CONTINUOUS
 62
     7
 10
33.93301270189221
 20
-9.59641016151377
 30
0.0
 11
33.69999999999999
 21
-10.0
 31
0.0
  0
LINE
  5
7A3E
  8
0
  6
CONTINUOUS
 62
     7
 10
33.93301270189221
 20
-10.40358983848622
 30
0.0
 11
33.69999999999999
 21
-10.0
 31
0.0
  0
ARC
  5
7A3F
  8
0
  6
CONTINUOUS
 62
     7
 10
33.49999999999999
 20
-10.65358983848622
 30
0.0
 40
0.5
 50
0.00000000000001
 51
30.00000000000025
  0
LINE
  5
7A40
  8
0
  6
CONTINUOUS
 62
     7
 10
33.99999999999999
 20
-7.5
 30
0.0
 11
33.75097659248407
 21
-8.78111437120669
 31
0.0
  0
ARC
  5
7A41
  8
0
  6
CONTINUOUS
 62
     7
 10
33.49999999999999
 20
-9.34641016151377
 30
0.0
 40
0.5
 50
329.9999999999999
 51
30.00000000000025
  0
LINE
  5
7A42
  8
0
  6
CONTINUOUS
 62
     7
 10
33.93301270189221
 20
-9.09641016151377
 30
0.0
 11
33.75097659248407
 21
-8.78111437120669
 31
0.0
  0
LINE
  5
7A4B
  8
0
  6
CONTINUOUS
 62
     7
 10
36.5
 20
-2.43933982822019
 30
0.0
 11
36.5
 21
2.4393398282202
 31
0.0
  0
LINE
  5
7A4C
  8
0
  6
CONTINUOUS
 62
     7
 10
-36.5
 20
-2.43933982822019
 30
0.0
 11
-36.5
 21
2.43933982822019
 31
0.0
  0
LINE
  5
7A4F
  8
CENTER
  6
CENTER
 62
     1
 10
-30.00000000000001
 20
4.0
 30
0.0
 11
-30.0
 21
16.0
 31
0.0
  0
LINE
  5
7A50
  8
0
  6
CONTINUOUS
 62
     7
 10
-34.0
 20
7.06066017177982
 30
0.0
 11
-34.0
 21
7.49999999999999
 31
0.0
  0
LINE
  5
7A51
  8
0
  6
CONTINUOUS
 62
     7
 10
-34.0
 20
10.65358983848622
 30
0.0
 11
-34.0
 21
12.93933982822017
 31
0.0
  0
ARC
  5
7A53
  8
0
  6
CONTINUOUS
 62
     7
 10
-29.0
 20
9.0
 30
0.0
 40
3.0
 50
270.0
 51
0.0
  0
ARC
  5
7A55
  8
0
  6
CONTINUOUS
 62
     7
 10
-39.7
 20
6.7
 30
0.0
 40
0.3
 50
90.0
 51
180.0
  0
LINE
  5
7A56
  8
0
  6
CONTINUOUS
 62
     7
 10
-40.0
 20
13.3
 30
0.0
 11
-40.0
 21
19.0
 31
0.0
  0
LINE
  5
7A57
  8
0
  6
CONTINUOUS
 62
     7
 10
-38.0
 20
4.0
 30
0.0
 11
-38.0
 21
6.7
 31
0.0
  0
ARC
  5
7A58
  8
0
  6
CONTINUOUS
 62
     7
 10
-38.3
 20
6.7
 30
0.0
 40
0.3
 50
0.0
 51
90.0
  0
LINE
  5
7A59
  8
0
  6
CONTINUOUS
 62
     7
 10
-38.0
 20
13.3
 30
0.0
 11
-38.0
 21
16.0
 31
0.0
  0
ARC
  5
7A5A
  8
0
  6
CONTINUOUS
 62
     7
 10
-38.3
 20
13.3
 30
0.0
 40
0.3
 50
270.0
 51
0.0
  0
LINE
  5
7A5B
  8
CENTER
  6
CENTER
 62
     1
 10
-24.0
 20
10.0
 30
0.0
 11
-36.0
 21
10.0
 31
0.0
  0
LINE
  5
7A5C
  8
0
  6
CONTINUOUS
 62
     7
 10
-37.06066017177983
 20
16.0
 30
0.0
 11
-38.0
 21
16.0
 31
0.0
  0
LINE
  5
7A5D
  8
0
  6
CONTINUOUS
 62
     7
 10
-37.06066017177982
 20
4.0
 30
0.0
 11
-38.0
 21
4.0
 31
0.0
  0
LINE
  5
7A5E
  8
0
  6
CONTINUOUS
 62
     7
 10
-38.3
 20
13.0
 30
0.0
 11
-39.7
 21
13.0
 31
0.0
  0
ARC
  5
7A5F
  8
0
  6
CONTINUOUS
 62
     7
 10
-39.7
 20
13.3
 30
0.0
 40
0.3
 50
180.0
 51
270.0
  0
LINE
  5
7A60
  8
0
  6
CONTINUOUS
 62
     7
 10
-38.3
 20
7.0
 30
0.0
 11
-39.7
 21
7.0
 31
0.0
  0
LINE
  5
7A61
  8
0
  6
CONTINUOUS
 62
     7
 10
-29.0
 20
6.0
 30
0.0
 11
-32.52512626584709
 21
6.0
 31
0.0
  0
LINE
  5
7A63
  8
0
  6
CONTINUOUS
 62
     7
 10
38.99999999999998
 20
20.0
 30
0.0
 11
33.30000000000001
 21
20.0
 31
0.0
  0
ARC
  5
7A64
  8
0
  6
CONTINUOUS
 62
     7
 10
-39.0
 20
19.0
 30
0.0
 40
1.0
 50
90.0
 51
180.0
  0
LINE
  5
7A68
  8
0
  6
CONTINUOUS
 62
     7
 10
-34.0
 20
12.93933982822017
 30
0.0
 11
-37.06066017177983
 21
16.0
 31
0.0
  0
LINE
  5
7A69
  8
0
  6
CONTINUOUS
 62
     7
 10
-34.0
 20
7.06066017177982
 30
0.0
 11
-37.06066017177983
 21
4.0
 31
0.0
  0
LINE
  5
7A6A
  8
0
  6
CONTINUOUS
 62
     7
 10
-33.23223304703363
 20
5.70710678118655
 30
0.0
 11
-36.5
 21
2.43933982822018
 31
0.0
  0
CIRCLE
  5
7A73
  8
0
  6
CONTINUOUS
 62
     7
 10
-30.0
 20
10.0
 30
0.0
 40
2.1
  0
LINE
  5
7A74
  8
CENTER
  6
CENTER
 62
     1
 10
30.0
 20
4.0
 30
0.0
 11
29.99999999999998
 21
16.0
 31
0.0
  0
LINE
  5
7A75
  8
0
  6
CONTINUOUS
 62
     7
 10
34.0
 20
7.06066017177982
 30
0.0
 11
33.99999999999999
 21
9.34641016151378
 31
0.0
  0
LINE
  5
7A76
  8
0
  6
CONTINUOUS
 62
     7
 10
33.99999999999999
 20
12.50000000000001
 30
0.0
 11
33.99999999999999
 21
12.93933982822018
 31
0.0
  0
ARC
  5
7A78
  8
0
  6
CONTINUOUS
 62
     7
 10
29.0
 20
9.0
 30
0.0
 40
3.0
 50
180.0
 51
270.0
  0
ARC
  5
7A7A
  8
0
  6
CONTINUOUS
 62
     7
 10
39.7
 20
6.70000000000001
 30
0.0
 40
0.3
 50
0.0
 51
90.0
  0
LINE
  5
7A7B
  8
0
  6
CONTINUOUS
 62
     7
 10
40.0
 20
13.30000000000001
 30
0.0
 11
39.99999999999999
 21
19.00000000000001
 31
0.0
  0
LINE
  5
7A7C
  8
0
  6
CONTINUOUS
 62
     7
 10
38.0
 20
4.00000000000001
 30
0.0
 11
38.0
 21
6.7
 31
0.0
  0
ARC
  5
7A7D
  8
0
  6
CONTINUOUS
 62
     7
 10
38.3
 20
6.70000000000001
 30
0.0
 40
0.3
 50
90.0
 51
180.0
  0
LINE
  5
7A7E
  8
0
  6
CONTINUOUS
 62
     7
 10
38.0
 20
13.30000000000001
 30
0.0
 11
37.99999999999999
 21
16.0
 31
0.0
  0
ARC
  5
7A7F
  8
0
  6
CONTINUOUS
 62
     7
 10
38.3
 20
13.30000000000001
 30
0.0
 40
0.3
 50
180.0
 51
270.0
  0
LINE
  5
7A80
  8
CENTER
  6
CENTER
 62
     1
 10
24.0
 20
10.0
 30
0.0
 11
35.99999999999999
 21
10.0
 31
0.0
  0
LINE
  5
7A81
  8
0
  6
CONTINUOUS
 62
     7
 10
37.06066017177982
 20
16.0
 30
0.0
 11
37.99999999999999
 21
16.0
 31
0.0
  0
LINE
  5
7A82
  8
0
  6
CONTINUOUS
 62
     7
 10
37.06066017177982
 20
4.00000000000001
 30
0.0
 11
38.0
 21
4.00000000000001
 31
0.0
  0
LINE
  5
7A83
  8
0
  6
CONTINUOUS
 62
     7
 10
38.3
 20
13.0
 30
0.0
 11
39.7
 21
13.0
 31
0.0
  0
ARC
  5
7A84
  8
0
  6
CONTINUOUS
 62
     7
 10
39.7
 20
13.30000000000001
 30
0.0
 40
0.3
 50
270.0
 51
0.0
  0
LINE
  5
7A85
  8
0
  6
CONTINUOUS
 62
     7
 10
38.3
 20
7.00000000000001
 30
0.0
 11
39.7
 21
7.00000000000001
 31
0.0
  0
LINE
  5
7A86
  8
0
  6
CONTINUOUS
 62
     7
 10
29.0
 20
6.0
 30
0.0
 11
32.52512626584708
 21
6.00000000000001
 31
0.0
  0
ARC
  5
7A88
  8
0
  6
CONTINUOUS
 62
     7
 10
38.99999999999998
 20
19.00000000000001
 30
0.0
 40
1.0
 50
0.0
 51
90.0
  0
LINE
  5
7A89
  8
0
  6
CONTINUOUS
 62
     7
 10
33.99999999999999
 20
12.93933982822018
 30
0.0
 11
37.06066017177982
 21
16.0
 31
0.0
  0
LINE
  5
7A8A
  8
0
  6
CONTINUOUS
 62
     7
 10
34.0
 20
7.06066017177982
 30
0.0
 11
37.06066017177982
 21
4.00000000000001
 31
0.0
  0
LINE
  5
7A8B
  8
0
  6
CONTINUOUS
 62
     7
 10
33.23223304703363
 20
5.70710678118655
 30
0.0
 11
36.5
 21
2.4393398282202
 31
0.0
  0
CIRCLE
  5
7A91
  8
0
  6
CONTINUOUS
 62
     7
 10
30.0
 20
10.0
 30
0.0
 40
2.1
  0
LINE
  5
7AAA
  8
0
  6
CONTINUOUS
 62
     7
 10
-27.06066017177982
 20
14.00000000000001
 30
0.0
 11
-29.34641016151377
 21
14.00000000000001
 31
0.0
  0
LINE
  5
7AAB
  8
0
  6
CONTINUOUS
 62
     7
 10
-32.5
 20
14.00000000000001
 30
0.0
 11
-32.93933982822017
 21
14.00000000000001
 31
0.0
  0
ARC
  5
7AAC
  8
0
  6
CONTINUOUS
 62
     7
 10
-26.7
 20
19.70000000000002
 30
0.0
 40
0.3
 50
90.0
 51
180.0
  0
LINE
  5
7AAD
  8
0
  6
CONTINUOUS
 62
     7
 10
-24.0
 20
18.00000000000001
 30
0.0
 11
-26.7
 21
18.00000000000001
 31
0.0
  0
ARC
  5
7AAE
  8
0
  6
CONTINUOUS
 62
     7
 10
-26.7
 20
18.30000000000001
 30
0.0
 40
0.3
 50
180.0
 51
270.0
  0
LINE
  5
7AAF
  8
0
  6
CONTINUOUS
 62
     7
 10
-33.3
 20
18.00000000000001
 30
0.0
 11
-36.0
 21
18.00000000000001
 31
0.0
  0
ARC
  5
7AB0
  8
0
  6
CONTINUOUS
 62
     7
 10
-33.3
 20
18.30000000000001
 30
0.0
 40
0.3
 50
270.0
 51
0.0
  0
LINE
  5
7AB1
  8
0
  6
CONTINUOUS
 62
     7
 10
-36.0
 20
17.06066017177984
 30
0.0
 11
-36.0
 21
18.00000000000001
 31
0.0
  0
LINE
  5
7AB2
  8
0
  6
CONTINUOUS
 62
     7
 10
-24.0
 20
17.06066017177983
 30
0.0
 11
-24.0
 21
18.00000000000001
 31
0.0
  0
LINE
  5
7AB3
  8
0
  6
CONTINUOUS
 62
     7
 10
-33.0
 20
18.30000000000001
 30
0.0
 11
-33.0
 21
19.70000000000002
 31
0.0
  0
ARC
  5
7AB4
  8
0
  6
CONTINUOUS
 62
     7
 10
-33.3
 20
19.70000000000002
 30
0.0
 40
0.3
 50
0.0
 51
90.0
  0
LINE
  5
7AB5
  8
0
  6
CONTINUOUS
 62
     7
 10
-27.0
 20
18.30000000000001
 30
0.0
 11
-27.0
 21
19.70000000000002
 31
0.0
  0
LINE
  5
7AB6
  8
0
  6
CONTINUOUS
 62
     7
 10
-30.40358983848622
 20
13.93301270189223
 30
0.0
 11
-30.0
 21
13.70000000000001
 31
0.0
  0
LINE
  5
7AB7
  8
0
  6
CONTINUOUS
 62
     7
 10
-29.59641016151377
 20
13.93301270189222
 30
0.0
 11
-30.0
 21
13.70000000000001
 31
0.0
  0
ARC
  5
7AB8
  8
0
  6
CONTINUOUS
 62
     7
 10
-29.34641016151377
 20
13.5
 30
0.0
 40
0.5
 50
90.0
 51
120.0000000000002
  0
LINE
  5
7AB9
  8
0
  6
CONTINUOUS
 62
     7
 10
-32.93933982822017
 20
14.00000000000001
 30
0.0
 11
-36.0
 21
17.06066017177984
 31
0.0
  0
LINE
  5
7ABA
  8
0
  6
CONTINUOUS
 62
     7
 10
-27.06066017177982
 20
14.00000000000001
 30
0.0
 11
-24.0
 21
17.06066017177984
 31
0.0
  0
LINE
  5
7ABB
  8
0
  6
CONTINUOUS
 62
     7
 10
-32.5
 20
14.00000000000001
 30
0.0
 11
-31.21888562879331
 21
13.75097659248408
 31
0.0
  0
ARC
  5
7ABC
  8
0
  6
CONTINUOUS
 62
     7
 10
-30.65358983848622
 20
13.5
 30
0.0
 40
0.5
 50
59.99999999999979
 51
120.0000000000002
  0
LINE
  5
7ABD
  8
0
  6
CONTINUOUS
 62
     7
 10
-30.90358983848622
 20
13.93301270189223
 30
0.0
 11
-31.21888562879331
 21
13.75097659248408
 31
0.0
  0
LINE
  5
7AC0
  8
0
  6
CONTINUOUS
 62
     7
 10
27.06066017177982
 20
14.00000000000001
 30
0.0
 11
27.50000000000003
 21
14.0
 31
0.0
  0
LINE
  5
7AC1
  8
0
  6
CONTINUOUS
 62
     7
 10
30.65358983848622
 20
14.00000000000001
 30
0.0
 11
32.93933982822018
 21
14.00000000000001
 31
0.0
  0
ARC
  5
7AC2
  8
0
  6
CONTINUOUS
 62
     7
 10
26.7
 20
19.7
 30
0.0
 40
0.3
 50
0.0
 51
90.0
  0
LINE
  5
7AC3
  8
0
  6
CONTINUOUS
 62
     7
 10
24.0
 20
18.0
 30
0.0
 11
26.7
 21
18.0
 31
0.0
  0
ARC
  5
7AC4
  8
0
  6
CONTINUOUS
 62
     7
 10
26.7
 20
18.3
 30
0.0
 40
0.3
 50
270.0
 51
0.0
  0
LINE
  5
7AC5
  8
0
  6
CONTINUOUS
 62
     7
 10
33.3
 20
18.0
 30
0.0
 11
36.0
 21
18.0
 31
0.0
  0
ARC
  5
7AC6
  8
0
  6
CONTINUOUS
 62
     7
 10
33.3
 20
18.3
 30
0.0
 40
0.3
 50
180.0
 51
270.0
  0
LINE
  5
7AC7
  8
0
  6
CONTINUOUS
 62
     7
 10
36.0
 20
17.06066017177983
 30
0.0
 11
36.0
 21
18.0
 31
0.0
  0
LINE
  5
7AC8
  8
0
  6
CONTINUOUS
 62
     7
 10
24.0
 20
17.06066017177981
 30
0.0
 11
24.0
 21
18.0
 31
0.0
  0
LINE
  5
7AC9
  8
0
  6
CONTINUOUS
 62
     7
 10
33.0
 20
18.3
 30
0.0
 11
33.0
 21
19.7
 31
0.0
  0
ARC
  5
7ACA
  8
0
  6
CONTINUOUS
 62
     7
 10
33.30000000000001
 20
19.7
 30
0.0
 40
0.3
 50
90.0
 51
180.0
  0
LINE
  5
7ACB
  8
0
  6
CONTINUOUS
 62
     7
 10
27.0
 20
18.3
 30
0.0
 11
27.00000000000001
 21
19.7
 31
0.0
  0
LINE
  5
7ACF
  8
0
  6
CONTINUOUS
 62
     7
 10
32.93933982822018
 20
14.00000000000001
 30
0.0
 11
36.0
 21
17.06066017177983
 31
0.0
  0
LINE
  5
7AD0
  8
0
  6
CONTINUOUS
 62
     7
 10
27.06066017177982
 20
14.00000000000001
 30
0.0
 11
24.0
 21
17.06066017177983
 31
0.0
  0
LINE
  5
7AD4
  8
0
  6
CONTINUOUS
 62
     7
 10
-33.3
 20
20.0
 30
0.0
 11
-39.0
 21
20.0
 31
0.0
  0
LINE
  5
7AD5
  8
0
  6
CONTINUOUS
 62
     7
 10
-13.3
 20
20.00000000000001
 30
0.0
 11
-26.7
 21
20.0
 31
0.0
  0
LINE
  5
7B15
  8
0
  6
CONTINUOUS
 62
     7
 10
25.70710678118655
 20
13.23223304703364
 30
0.0
 11
22.43933982822019
 21
16.5
 31
0.0
  0
LINE
  5
7B18
  8
0
  6
CONTINUOUS
 62
     7
 10
-25.70710678118655
 20
13.23223304703362
 30
0.0
 11
-22.43933982822019
 21
16.5
 31
0.0
  0
LINE
  5
7B19
  8
0
  6
CONTINUOUS
 62
     7
 10
-26.0
 20
9.0
 30
0.0
 11
-26.0
 21
12.52512626584708
 31
0.0
  0
LINE
  5
7B1A
  8
0
  6
CONTINUOUS
 62
     7
 10
26.0
 20
9.0
 30
0.0
 11
26.0
 21
12.52512626584709
 31
0.0
  0
LINE
  5
7B1E
  8
0
  6
CONTINUOUS
 62
     7
 10
29.59641016151377
 20
13.93301270189223
 30
0.0
 11
30.0
 21
13.70000000000001
 31
0.0
  0
LINE
  5
7B1F
  8
0
  6
CONTINUOUS
 62
     7
 10
30.40358983848622
 20
13.93301270189223
 30
0.0
 11
30.0
 21
13.70000000000001
 31
0.0
  0
ARC
  5
7B20
  8
0
  6
CONTINUOUS
 62
     7
 10
30.65358983848622
 20
13.50000000000001
 30
0.0
 40
0.5
 50
90.0
 51
120.0
  0
LINE
  5
7B21
  8
0
  6
CONTINUOUS
 62
     7
 10
27.5
 20
14.00000000000001
 30
0.0
 11
28.78111437120669
 21
13.75097659248408
 31
0.0
  0
ARC
  5
7B22
  8
0
  6
CONTINUOUS
 62
     7
 10
29.34641016151377
 20
13.50000000000001
 30
0.0
 40
0.5
 50
60.0
 51
120.0
  0
LINE
  5
7B23
  8
0
  6
CONTINUOUS
 62
     7
 10
29.09641016151377
 20
13.93301270189223
 30
0.0
 11
28.78111437120669
 21
13.75097659248408
 31
0.0
  0
LINE
  5
7B24
  8
0
  6
CONTINUOUS
 62
     7
 10
-33.93301270189223
 20
9.59641016151377
 30
0.0
 11
-33.7
 21
10.0
 31
0.0
  0
LINE
  5
7B25
  8
0
  6
CONTINUOUS
 62
     7
 10
-33.93301270189222
 20
10.40358983848622
 30
0.0
 11
-33.7
 21
10.0
 31
0.0
  0
ARC
  5
7B26
  8
0
  6
CONTINUOUS
 62
     7
 10
-33.5
 20
10.65358983848622
 30
0.0
 40
0.5
 50
180.0
 51
210.0000000000002
  0
LINE
  5
7B27
  8
0
  6
CONTINUOUS
 62
     7
 10
-34.0
 20
7.5
 30
0.0
 11
-33.75097659248407
 21
8.78111437120669
 31
0.0
  0
ARC
  5
7B28
  8
0
  6
CONTINUOUS
 62
     7
 10
-33.5
 20
9.34641016151377
 30
0.0
 40
0.5
 50
149.9999999999998
 51
210.0000000000002
  0
LINE
  5
7B29
  8
0
  6
CONTINUOUS
 62
     7
 10
-33.93301270189223
 20
9.09641016151377
 30
0.0
 11
-33.75097659248407
 21
8.78111437120669
 31
0.0
  0
LINE
  5
7B2A
  8
0
  6
CONTINUOUS
 62
     7
 10
33.93301270189221
 20
10.40358983848623
 30
0.0
 11
33.69999999999999
 21
10.0
 31
0.0
  0
LINE
  5
7B2B
  8
0
  6
CONTINUOUS
 62
     7
 10
33.93301270189221
 20
9.59641016151378
 30
0.0
 11
33.69999999999999
 21
10.0
 31
0.0
  0
ARC
  5
7B2C
  8
0
  6
CONTINUOUS
 62
     7
 10
33.49999999999999
 20
9.34641016151378
 30
0.0
 40
0.5
 50
0.0
 51
30.00000000000027
  0
LINE
  5
7B2D
  8
0
  6
CONTINUOUS
 62
     7
 10
33.99999999999999
 20
12.50000000000001
 30
0.0
 11
33.75097659248407
 21
11.21888562879332
 31
0.0
  0
ARC
  5
7B2E
  8
0
  6
CONTINUOUS
 62
     7
 10
33.49999999999999
 20
10.65358983848623
 30
0.0
 40
0.5
 50
330.0
 51
30.00000000000027
  0
LINE
  5
7B2F
  8
0
  6
CONTINUOUS
 62
     7
 10
33.93301270189221
 20
10.90358983848623
 30
0.0
 11
33.75097659248407
 21
11.21888562879332
 31
0.0
  0
LINE
  5
7BCC
  8
0
  6
CONTINUOUS
 62
     7
 10
-17.56066017177982
 20
16.5
 30
0.0
 11
-22.4393398282202
 21
16.5
 31
0.0
  0
LINE
  5
7BCF
  8
0
  6
CONTINUOUS
 62
     7
 10
27.06066017177981
 20
-14.00000000000001
 30
0.0
 11
29.34641016151376
 21
-14.00000000000001
 31
0.0
  0
LINE
  5
7BD0
  8
0
  6
CONTINUOUS
 62
     7
 10
32.5
 20
-14.00000000000001
 30
0.0
 11
32.93933982822017
 21
-14.00000000000001
 31
0.0
  0
ARC
  5
7BD1
  8
0
  6
CONTINUOUS
 62
     7
 10
26.69999999999999
 20
-19.70000000000002
 30
0.0
 40
0.3
 50
270.0
 51
0.0
  0
LINE
  5
7BD2
  8
0
  6
CONTINUOUS
 62
     7
 10
23.99999999999999
 20
-18.00000000000001
 30
0.0
 11
26.69999999999999
 21
-18.00000000000001
 31
0.0
  0
ARC
  5
7BD3
  8
0
  6
CONTINUOUS
 62
     7
 10
26.69999999999999
 20
-18.30000000000001
 30
0.0
 40
0.3
 50
0.0
 51
90.0
  0
LINE
  5
7BD4
  8
0
  6
CONTINUOUS
 62
     7
 10
33.29999999999998
 20
-18.00000000000002
 30
0.0
 11
36.0
 21
-18.00000000000002
 31
0.0
  0
ARC
  5
7BD5
  8
0
  6
CONTINUOUS
 62
     7
 10
33.29999999999998
 20
-18.30000000000001
 30
0.0
 40
0.3
 50
90.0
 51
180.0
  0
LINE
  5
7BD6
  8
0
  6
CONTINUOUS
 62
     7
 10
36.0
 20
-17.06066017177985
 30
0.0
 11
36.0
 21
-18.00000000000002
 31
0.0
  0
LINE
  5
7BD7
  8
0
  6
CONTINUOUS
 62
     7
 10
23.99999999999999
 20
-17.06066017177983
 30
0.0
 11
23.99999999999999
 21
-18.00000000000001
 31
0.0
  0
LINE
  5
7BD8
  8
0
  6
CONTINUOUS
 62
     7
 10
33.0
 20
-18.30000000000001
 30
0.0
 11
33.0
 21
-19.70000000000002
 31
0.0
  0
ARC
  5
7BD9
  8
0
  6
CONTINUOUS
 62
     7
 10
33.29999999999998
 20
-19.70000000000002
 30
0.0
 40
0.3
 50
180.0
 51
270.0
  0
LINE
  5
7BDA
  8
0
  6
CONTINUOUS
 62
     7
 10
26.99999999999999
 20
-18.30000000000001
 30
0.0
 11
26.99999999999999
 21
-19.70000000000002
 31
0.0
  0
LINE
  5
7BDB
  8
0
  6
CONTINUOUS
 62
     7
 10
30.40358983848622
 20
-13.93301270189223
 30
0.0
 11
29.99999999999999
 21
-13.70000000000001
 31
0.0
  0
LINE
  5
7BDC
  8
0
  6
CONTINUOUS
 62
     7
 10
29.59641016151377
 20
-13.93301270189223
 30
0.0
 11
29.99999999999999
 21
-13.70000000000001
 31
0.0
  0
ARC
  5
7BDD
  8
0
  6
CONTINUOUS
 62
     7
 10
29.34641016151376
 20
-13.5
 30
0.0
 40
0.5
 50
270.0
 51
300.0
  0
LINE
  5
7BDE
  8
0
  6
CONTINUOUS
 62
     7
 10
32.93933982822017
 20
-14.00000000000001
 30
0.0
 11
36.0
 21
-17.06066017177985
 31
0.0
  0
LINE
  5
7BDF
  8
0
  6
CONTINUOUS
 62
     7
 10
27.06066017177981
 20
-14.00000000000001
 30
0.0
 11
23.99999999999999
 21
-17.06066017177984
 31
0.0
  0
LINE
  5
7BE0
  8
0
  6
CONTINUOUS
 62
     7
 10
32.5
 20
-14.00000000000001
 30
0.0
 11
31.2188856287933
 21
-13.75097659248408
 31
0.0
  0
ARC
  5
7BE1
  8
0
  6
CONTINUOUS
 62
     7
 10
30.65358983848622
 20
-13.5
 30
0.0
 40
0.5
 50
240.0
 51
300.0
  0
LINE
  5
7BE2
  8
0
  6
CONTINUOUS
 62
     7
 10
30.90358983848622
 20
-13.93301270189223
 30
0.0
 11
31.2188856287933
 21
-13.75097659248408
 31
0.0
  0
LINE
  5
7BE3
  8
0
  6
CONTINUOUS
 62
     7
 10
-27.06066017177983
 20
-14.00000000000001
 30
0.0
 11
-27.50000000000003
 21
-14.00000000000001
 31
0.0
  0
LINE
  5
7BE4
  8
0
  6
CONTINUOUS
 62
     7
 10
-30.65358983848623
 20
-14.00000000000001
 30
0.0
 11
-32.93933982822018
 21
-14.00000000000001
 31
0.0
  0
ARC
  5
7BE5
  8
0
  6
CONTINUOUS
 62
     7
 10
-26.70000000000001
 20
-19.7
 30
0.0
 40
0.3
 50
180.0
 51
270.0
  0
LINE
  5
7BE6
  8
0
  6
CONTINUOUS
 62
     7
 10
-24.00000000000001
 20
-18.0
 30
0.0
 11
-26.70000000000001
 21
-18.0
 31
0.0
  0
ARC
  5
7BE7
  8
0
  6
CONTINUOUS
 62
     7
 10
-26.70000000000001
 20
-18.3
 30
0.0
 40
0.3
 50
90.0
 51
180.0
  0
LINE
  5
7BE8
  8
0
  6
CONTINUOUS
 62
     7
 10
-33.30000000000001
 20
-18.0
 30
0.0
 11
-36.0
 21
-18.0
 31
0.0
  0
ARC
  5
7BE9
  8
0
  6
CONTINUOUS
 62
     7
 10
-33.30000000000001
 20
-18.3
 30
0.0
 40
0.3
 50
0.0
 51
90.0
  0
LINE
  5
7BEA
  8
0
  6
CONTINUOUS
 62
     7
 10
-36.0
 20
-17.06066017177983
 30
0.0
 11
-36.0
 21
-18.0
 31
0.0
  0
LINE
  5
7BEB
  8
0
  6
CONTINUOUS
 62
     7
 10
-24.00000000000001
 20
-17.06066017177981
 30
0.0
 11
-24.00000000000001
 21
-18.0
 31
0.0
  0
LINE
  5
7BEC
  8
0
  6
CONTINUOUS
 62
     7
 10
-33.0
 20
-18.3
 30
0.0
 11
-33.0
 21
-19.7
 31
0.0
  0
ARC
  5
7BED
  8
0
  6
CONTINUOUS
 62
     7
 10
-33.30000000000001
 20
-19.7
 30
0.0
 40
0.3
 50
270.0
 51
0.0
  0
LINE
  5
7BEE
  8
0
  6
CONTINUOUS
 62
     7
 10
-27.00000000000001
 20
-18.3
 30
0.0
 11
-27.00000000000001
 21
-19.7
 31
0.0
  0
LINE
  5
7BEF
  8
0
  6
CONTINUOUS
 62
     7
 10
-32.93933982822018
 20
-14.00000000000001
 30
0.0
 11
-36.0
 21
-17.06066017177983
 31
0.0
  0
LINE
  5
7BF0
  8
0
  6
CONTINUOUS
 62
     7
 10
-27.06066017177983
 20
-14.00000000000001
 30
0.0
 11
-24.00000000000001
 21
-17.06066017177983
 31
0.0
  0
LINE
  5
7BF1
  8
0
  6
CONTINUOUS
 62
     7
 10
-29.59641016151378
 20
-13.93301270189223
 30
0.0
 11
-30.0
 21
-13.70000000000001
 31
0.0
  0
LINE
  5
7BF2
  8
0
  6
CONTINUOUS
 62
     7
 10
-30.40358983848623
 20
-13.93301270189223
 30
0.0
 11
-30.0
 21
-13.70000000000001
 31
0.0
  0
ARC
  5
7BF3
  8
0
  6
CONTINUOUS
 62
     7
 10
-30.65358983848623
 20
-13.50000000000001
 30
0.0
 40
0.5
 50
270.0
 51
300.0
  0
LINE
  5
7BF4
  8
0
  6
CONTINUOUS
 62
     7
 10
-27.5
 20
-14.00000000000001
 30
0.0
 11
-28.78111437120669
 21
-13.75097659248408
 31
0.0
  0
ARC
  5
7BF5
  8
0
  6
CONTINUOUS
 62
     7
 10
-29.34641016151378
 20
-13.50000000000001
 30
0.0
 40
0.5
 50
240.0
 51
300.0
  0
LINE
  5
7BF6
  8
0
  6
CONTINUOUS
 62
     7
 10
-29.09641016151378
 20
-13.93301270189223
 30
0.0
 11
-28.78111437120669
 21
-13.75097659248408
 31
0.0
  0
LINE
  5
7BF8
  8
0
  6
CONTINUOUS
 62
     7
 10
-33.30000000000001
 20
-20.0
 30
0.0
 11
-39.0
 21
-20.0
 31
0.0
  0
LINE
  5
7BF9
  8
0
  6
CONTINUOUS
 62
     7
 10
-25.70710678118655
 20
-13.23223304703362
 30
0.0
 11
-22.43933982822019
 21
-16.5
 31
0.0
  0
LINE
  5
7BFA
  8
0
  6
CONTINUOUS
 62
     7
 10
25.70710678118655
 20
-13.23223304703364
 30
0.0
 11
22.43933982822019
 21
-16.5
 31
0.0
  0
LINE
  5
7BFC
  8
CENTER
  6
CENTER
 62
     1
 10
-10.00000000000001
 20
4.0
 30
0.0
 11
-10.0
 21
16.0
 31
0.0
  0
LINE
  5
7BFD
  8
CENTER
  6
CENTER
 62
     1
 10
-4.00000000000001
 20
10.0
 30
0.0
 11
-16.0
 21
10.0
 31
0.0
  0
LINE
  5
7BFF
  8
0
  6
CONTINUOUS
 62
     7
 10
-7.06066017177981
 20
14.00000000000001
 30
0.0
 11
-9.34641016151377
 21
14.00000000000001
 31
0.0
  0
LINE
  5
7C00
  8
0
  6
CONTINUOUS
 62
     7
 10
-12.5
 20
14.00000000000001
 30
0.0
 11
-12.93933982822017
 21
14.00000000000001
 31
0.0
  0
ARC
  5
7C01
  8
0
  6
CONTINUOUS
 62
     7
 10
-6.7
 20
19.70000000000002
 30
0.0
 40
0.3
 50
90.0
 51
180.0
  0
LINE
  5
7C02
  8
0
  6
CONTINUOUS
 62
     7
 10
-4.0
 20
18.00000000000001
 30
0.0
 11
-6.7
 21
18.00000000000001
 31
0.0
  0
ARC
  5
7C03
  8
0
  6
CONTINUOUS
 62
     7
 10
-6.7
 20
18.30000000000001
 30
0.0
 40
0.3
 50
180.0
 51
270.0
  0
LINE
  5
7C04
  8
0
  6
CONTINUOUS
 62
     7
 10
-13.3
 20
18.00000000000001
 30
0.0
 11
-16.0
 21
18.00000000000001
 31
0.0
  0
ARC
  5
7C05
  8
0
  6
CONTINUOUS
 62
     7
 10
-13.3
 20
18.30000000000001
 30
0.0
 40
0.3
 50
270.0
 51
0.0
  0
LINE
  5
7C06
  8
0
  6
CONTINUOUS
 62
     7
 10
-16.0
 20
17.06066017177984
 30
0.0
 11
-16.0
 21
18.00000000000001
 31
0.0
  0
LINE
  5
7C07
  8
0
  6
CONTINUOUS
 62
     7
 10
-4.0
 20
17.06066017177983
 30
0.0
 11
-4.0
 21
18.00000000000001
 31
0.0
  0
LINE
  5
7C08
  8
0
  6
CONTINUOUS
 62
     7
 10
-13.0
 20
18.30000000000001
 30
0.0
 11
-13.0
 21
19.70000000000002
 31
0.0
  0
ARC
  5
7C09
  8
0
  6
CONTINUOUS
 62
     7
 10
-13.3
 20
19.70000000000002
 30
0.0
 40
0.3
 50
0.0
 51
90.0
  0
LINE
  5
7C0A
  8
0
  6
CONTINUOUS
 62
     7
 10
-7.0
 20
18.30000000000001
 30
0.0
 11
-7.0
 21
19.70000000000002
 31
0.0
  0
LINE
  5
7C0B
  8
0
  6
CONTINUOUS
 62
     7
 10
-10.40358983848622
 20
13.93301270189223
 30
0.0
 11
-10.0
 21
13.70000000000001
 31
0.0
  0
LINE
  5
7C0C
  8
0
  6
CONTINUOUS
 62
     7
 10
-9.59641016151377
 20
13.93301270189222
 30
0.0
 11
-10.0
 21
13.70000000000001
 31
0.0
  0
ARC
  5
7C0D
  8
0
  6
CONTINUOUS
 62
     7
 10
-9.34641016151377
 20
13.5
 30
0.0
 40
0.5
 50
90.0
 51
120.0000000000002
  0
LINE
  5
7C0E
  8
0
  6
CONTINUOUS
 62
     7
 10
-12.93933982822017
 20
14.00000000000001
 30
0.0
 11
-16.0
 21
17.06066017177984
 31
0.0
  0
LINE
  5
7C0F
  8
0
  6
CONTINUOUS
 62
     7
 10
-7.06066017177981
 20
14.00000000000001
 30
0.0
 11
-4.0
 21
17.06066017177984
 31
0.0
  0
LINE
  5
7C10
  8
0
  6
CONTINUOUS
 62
     7
 10
-7.80271160629313
 20
11.13662822192704
 30
0.0
 11
-2.4393398282202
 21
16.5
 31
0.0
  0
LINE
  5
7C11
  8
0
  6
CONTINUOUS
 62
     7
 10
-12.5
 20
14.00000000000001
 30
0.0
 11
-11.21888562879331
 21
13.75097659248408
 31
0.0
  0
ARC
  5
7C12
  8
0
  6
CONTINUOUS
 62
     7
 10
-10.65358983848622
 20
13.5
 30
0.0
 40
0.5
 50
59.99999999999978
 51
120.0000000000002
  0
LINE
  5
7C13
  8
0
  6
CONTINUOUS
 62
     7
 10
-10.90358983848622
 20
13.93301270189223
 30
0.0
 11
-11.21888562879331
 21
13.75097659248408
 31
0.0
  0
LINE
  5
7C14
  8
CENTER
  6
CENTER
 62
     1
 10
9.99999999999999
 20
4.0
 30
0.0
 11
9.99999999999999
 21
16.0
 31
0.0
  0
LINE
  5
7C15
  8
CENTER
  6
CENTER
 62
     1
 10
15.99999999999999
 20
10.0
 30
0.0
 11
3.99999999999999
 21
10.0
 31
0.0
  0
LINE
  5
7C17
  8
0
  6
CONTINUOUS
 62
     7
 10
12.93933982822018
 20
14.00000000000001
 30
0.0
 11
10.65358983848622
 21
14.00000000000001
 31
0.0
  0
LINE
  5
7C18
  8
0
  6
CONTINUOUS
 62
     7
 10
7.5
 20
14.00000000000001
 30
0.0
 11
7.06066017177982
 21
14.00000000000001
 31
0.0
  0
ARC
  5
7C19
  8
0
  6
CONTINUOUS
 62
     7
 10
13.29999999999999
 20
19.70000000000002
 30
0.0
 40
0.3
 50
90.0
 51
180.0
  0
LINE
  5
7C1A
  8
0
  6
CONTINUOUS
 62
     7
 10
15.99999999999999
 20
18.00000000000001
 30
0.0
 11
13.29999999999999
 21
18.00000000000001
 31
0.0
  0
ARC
  5
7C1B
  8
0
  6
CONTINUOUS
 62
     7
 10
13.29999999999999
 20
18.30000000000001
 30
0.0
 40
0.3
 50
180.0
 51
270.0
  0
LINE
  5
7C1C
  8
0
  6
CONTINUOUS
 62
     7
 10
6.7
 20
18.00000000000001
 30
0.0
 11
3.99999999999999
 21
18.00000000000001
 31
0.0
  0
ARC
  5
7C1D
  8
0
  6
CONTINUOUS
 62
     7
 10
6.7
 20
18.30000000000001
 30
0.0
 40
0.3
 50
270.0
 51
0.0
  0
LINE
  5
7C1E
  8
0
  6
CONTINUOUS
 62
     7
 10
3.99999999999999
 20
17.06066017177984
 30
0.0
 11
3.99999999999999
 21
18.00000000000001
 31
0.0
  0
LINE
  5
7C1F
  8
0
  6
CONTINUOUS
 62
     7
 10
15.99999999999999
 20
17.06066017177983
 30
0.0
 11
15.99999999999999
 21
18.00000000000001
 31
0.0
  0
LINE
  5
7C20
  8
0
  6
CONTINUOUS
 62
     7
 10
7.0
 20
18.30000000000001
 30
0.0
 11
7.0
 21
19.70000000000002
 31
0.0
  0
ARC
  5
7C21
  8
0
  6
CONTINUOUS
 62
     7
 10
6.7
 20
19.70000000000002
 30
0.0
 40
0.3
 50
0.0
 51
90.0
  0
LINE
  5
7C22
  8
0
  6
CONTINUOUS
 62
     7
 10
13.0
 20
18.30000000000001
 30
0.0
 11
13.0
 21
19.70000000000002
 31
0.0
  0
LINE
  5
7C23
  8
0
  6
CONTINUOUS
 62
     7
 10
9.59641016151377
 20
13.93301270189223
 30
0.0
 11
10.0
 21
13.70000000000001
 31
0.0
  0
LINE
  5
7C24
  8
0
  6
CONTINUOUS
 62
     7
 10
10.40358983848622
 20
13.93301270189222
 30
0.0
 11
10.0
 21
13.70000000000001
 31
0.0
  0
ARC
  5
7C25
  8
0
  6
CONTINUOUS
 62
     7
 10
10.65358983848622
 20
13.5
 30
0.0
 40
0.5
 50
90.0
 51
120.0
  0
LINE
  5
7C26
  8
0
  6
CONTINUOUS
 62
     7
 10
7.06066017177982
 20
14.00000000000001
 30
0.0
 11
3.99999999999999
 21
17.06066017177984
 31
0.0
  0
LINE
  5
7C27
  8
0
  6
CONTINUOUS
 62
     7
 10
12.93933982822018
 20
14.00000000000001
 30
0.0
 11
15.99999999999999
 21
17.06066017177984
 31
0.0
  0
LINE
  5
7C28
  8
0
  6
CONTINUOUS
 62
     7
 10
15.5
 20
14.43933982822019
 30
0.0
 11
17.5606601717798
 21
16.5
 31
0.0
  0
LINE
  5
7C29
  8
0
  6
CONTINUOUS
 62
     7
 10
7.5
 20
14.00000000000001
 30
0.0
 11
8.78111437120669
 21
13.75097659248408
 31
0.0
  0
ARC
  5
7C2A
  8
0
  6
CONTINUOUS
 62
     7
 10
9.34641016151377
 20
13.5
 30
0.0
 40
0.5
 50
60.0
 51
120.0
  0
LINE
  5
7C2B
  8
0
  6
CONTINUOUS
 62
     7
 10
9.09641016151377
 20
13.93301270189223
 30
0.0
 11
8.78111437120669
 21
13.75097659248408
 31
0.0
  0
LINE
  5
7C2C
  8
0
  6
CONTINUOUS
 62
     7
 10
-15.5
 20
14.43933982822017
 30
0.0
 11
-17.56066017177982
 21
16.5
 31
0.0
  0
LINE
  5
7C2D
  8
0
  6
CONTINUOUS
 62
     7
 10
7.80271160629312
 20
11.13662822192705
 30
0.0
 11
2.43933982822017
 21
16.5
 31
0.0
  0
LINE
  5
7C2E
  8
0
  6
CONTINUOUS
 62
     7
 10
-2.4393398282202
 20
16.5
 30
0.0
 11
2.43933982822017
 21
16.5
 31
0.0
  0
LINE
  5
7C2F
  8
0
  6
CONTINUOUS
 62
     7
 10
17.5606601717798
 20
16.5
 30
0.0
 11
22.43933982822017
 21
16.5
 31
0.0
  0
LINE
  5
7C36
  8
0
  6
CONTINUOUS
 62
     7
 10
-6.7
 20
20.00000000000002
 30
0.0
 11
6.7
 21
20.00000000000002
 31
0.0
  0
LINE
  5
7C37
  8
0
  6
CONTINUOUS
 62
     7
 10
13.29999999999999
 20
20.00000000000002
 30
0.0
 11
26.7
 21
20.00000000000002
 31
0.0
  0
LINE
  5
7C3D
  8
CENTER
  6
CENTER
 62
     1
 10
0.0
 20
22.0
 30
0.0
 11
0.0
 21
-22.0
 31
0.0
  0
LINE
  5
7C3F
  8
0
  6
CONTINUOUS
 62
     7
 10
-15.5
 20
14.43933982822017
 30
0.0
 11
-15.5
 21
-14.43933982822018
 31
0.0
  0
LINE
  5
7C40
  8
0
  6
CONTINUOUS
 62
     7
 10
15.5
 20
-14.43933982822019
 30
0.0
 11
15.5
 21
14.43933982822019
 31
0.0
  0
LINE
  5
7C41
  8
0
  6
CONTINUOUS
 62
     7
 10
-13.3
 20
-20.00000000000001
 30
0.0
 11
-26.7
 21
-20.0
 31
0.0
  0
LINE
  5
7C42
  8
0
  6
CONTINUOUS
 62
     7
 10
-17.56066017177982
 20
-16.5
 30
0.0
 11
-22.4393398282202
 21
-16.5
 31
0.0
  0
LINE
  5
7C43
  8
CENTER
  6
CENTER
 62
     1
 10
-10.00000000000001
 20
-4.0
 30
0.0
 11
-10.0
 21
-16.0
 31
0.0
  0
LINE
  5
7C44
  8
CENTER
  6
CENTER
 62
     1
 10
-4.00000000000001
 20
-10.0
 30
0.0
 11
-16.0
 21
-10.0
 31
0.0
  0
ARC
  5
7C45
  8
0
  6
CONTINUOUS
 62
     7
 10
-10.0
 20
-10.0
 30
0.0
 40
2.1
 50
37.1807557814583
 51
325.8069228748605
  0
ARC
  5
7C48
  8
0
  6
CONTINUOUS
 62
     7
 10
-6.7
 20
-19.70000000000002
 30
0.0
 40
0.3
 50
180.0
 51
270.0
  0
LINE
  5
7C49
  8
0
  6
CONTINUOUS
 62
     7
 10
-4.0
 20
-18.00000000000001
 30
0.0
 11
-6.7
 21
-18.00000000000001
 31
0.0
  0
ARC
  5
7C4A
  8
0
  6
CONTINUOUS
 62
     7
 10
-6.7
 20
-18.30000000000001
 30
0.0
 40
0.3
 50
90.00000000000001
 51
180.0
  0
LINE
  5
7C4B
  8
0
  6
CONTINUOUS
 62
     7
 10
-13.3
 20
-18.00000000000001
 30
0.0
 11
-16.0
 21
-18.00000000000001
 31
0.0
  0
ARC
  5
7C4C
  8
0
  6
CONTINUOUS
 62
     7
 10
-13.3
 20
-18.30000000000001
 30
0.0
 40
0.3
 50
0.0
 51
90.00000000000001
  0
LINE
  5
7C4D
  8
0
  6
CONTINUOUS
 62
     7
 10
-16.0
 20
-17.06066017177984
 30
0.0
 11
-16.0
 21
-18.00000000000001
 31
0.0
  0
LINE
  5
7C4E
  8
0
  6
CONTINUOUS
 62
     7
 10
-4.0
 20
-17.06066017177983
 30
0.0
 11
-4.0
 21
-18.00000000000001
 31
0.0
  0
LINE
  5
7C4F
  8
0
  6
CONTINUOUS
 62
     7
 10
-13.0
 20
-18.30000000000001
 30
0.0
 11
-13.0
 21
-19.70000000000002
 31
0.0
  0
ARC
  5
7C50
  8
0
  6
CONTINUOUS
 62
     7
 10
-13.3
 20
-19.70000000000002
 30
0.0
 40
0.3
 50
270.0
 51
0.0
  0
LINE
  5
7C51
  8
0
  6
CONTINUOUS
 62
     7
 10
-7.0
 20
-18.30000000000001
 30
0.0
 11
-7.0
 21
-19.70000000000002
 31
0.0
  0
LINE
  5
7C55
  8
0
  6
CONTINUOUS
 62
     7
 10
-12.93933982822017
 20
-14.00000000000001
 30
0.0
 11
-16.0
 21
-17.06066017177984
 31
0.0
  0
LINE
  5
7C56
  8
0
  6
CONTINUOUS
 62
     7
 10
-7.06066017177981
 20
-14.00000000000001
 30
0.0
 11
-4.0
 21
-17.06066017177984
 31
0.0
  0
LINE
  5
7C57
  8
0
  6
CONTINUOUS
 62
     7
 10
-7.80271160629313
 20
-11.13662822192704
 30
0.0
 11
-2.4393398282202
 21
-16.5
 31
0.0
  0
LINE
  5
7C5B
  8
CENTER
  6
CENTER
 62
     1
 10
9.99999999999999
 20
-4.0
 30
0.0
 11
9.99999999999999
 21
-16.0
 31
0.0
  0
LINE
  5
7C5C
  8
CENTER
  6
CENTER
 62
     1
 10
15.99999999999999
 20
-10.0
 30
0.0
 11
3.99999999999999
 21
-10.0
 31
0.0
  0
ARC
  5
7C5D
  8
0
  6
CONTINUOUS
 62
     7
 10
9.99999999999999
 20
-10.0
 30
0.0
 40
2.1
 50
214.1930771251396
 51
142.8192442185417
  0
ARC
  5
7C60
  8
0
  6
CONTINUOUS
 62
     7
 10
13.29999999999999
 20
-19.70000000000002
 30
0.0
 40
0.3
 50
180.0
 51
270.0
  0
LINE
  5
7C61
  8
0
  6
CONTINUOUS
 62
     7
 10
15.99999999999999
 20
-18.00000000000001
 30
0.0
 11
13.29999999999999
 21
-18.00000000000001
 31
0.0
  0
ARC
  5
7C62
  8
0
  6
CONTINUOUS
 62
     7
 10
13.29999999999999
 20
-18.30000000000001
 30
0.0
 40
0.3
 50
90.00000000000001
 51
180.0
  0
LINE
  5
7C63
  8
0
  6
CONTINUOUS
 62
     7
 10
6.7
 20
-18.00000000000001
 30
0.0
 11
3.99999999999999
 21
-18.00000000000001
 31
0.0
  0
ARC
  5
7C64
  8
0
  6
CONTINUOUS
 62
     7
 10
6.7
 20
-18.30000000000001
 30
0.0
 40
0.3
 50
0.0
 51
90.00000000000001
  0
LINE
  5
7C65
  8
0
  6
CONTINUOUS
 62
     7
 10
3.99999999999999
 20
-17.06066017177984
 30
0.0
 11
3.99999999999999
 21
-18.00000000000001
 31
0.0
  0
LINE
  5
7C66
  8
0
  6
CONTINUOUS
 62
     7
 10
15.99999999999999
 20
-17.06066017177983
 30
0.0
 11
15.99999999999999
 21
-18.00000000000001
 31
0.0
  0
LINE
  5
7C67
  8
0
  6
CONTINUOUS
 62
     7
 10
7.0
 20
-18.30000000000001
 30
0.0
 11
7.0
 21
-19.70000000000002
 31
0.0
  0
ARC
  5
7C68
  8
0
  6
CONTINUOUS
 62
     7
 10
6.7
 20
-19.70000000000002
 30
0.0
 40
0.3
 50
270.0
 51
0.0
  0
LINE
  5
7C69
  8
0
  6
CONTINUOUS
 62
     7
 10
13.0
 20
-18.30000000000001
 30
0.0
 11
13.0
 21
-19.70000000000002
 31
0.0
  0
LINE
  5
7C6D
  8
0
  6
CONTINUOUS
 62
     7
 10
7.06066017177982
 20
-14.00000000000001
 30
0.0
 11
3.99999999999999
 21
-17.06066017177984
 31
0.0
  0
LINE
  5
7C6E
  8
0
  6
CONTINUOUS
 62
     7
 10
12.93933982822018
 20
-14.00000000000001
 30
0.0
 11
15.99999999999999
 21
-17.06066017177984
 31
0.0
  0
LINE
  5
7C6F
  8
0
  6
CONTINUOUS
 62
     7
 10
15.5
 20
-14.43933982822019
 30
0.0
 11
17.5606601717798
 21
-16.5
 31
0.0
  0
LINE
  5
7C73
  8
0
  6
CONTINUOUS
 62
     7
 10
-15.5
 20
-14.43933982822018
 30
0.0
 11
-17.56066017177982
 21
-16.5
 31
0.0
  0
LINE
  5
7C74
  8
0
  6
CONTINUOUS
 62
     7
 10
7.80271160629312
 20
-11.13662822192705
 30
0.0
 11
2.43933982822017
 21
-16.5
 31
0.0
  0
LINE
  5
7C75
  8
0
  6
CONTINUOUS
 62
     7
 10
-2.4393398282202
 20
-16.5
 30
0.0
 11
2.43933982822017
 21
-16.5
 31
0.0
  0
LINE
  5
7C76
  8
0
  6
CONTINUOUS
 62
     7
 10
17.5606601717798
 20
-16.5
 30
0.0
 11
22.43933982822017
 21
-16.5
 31
0.0
  0
LINE
  5
7C77
  8
0
  6
CONTINUOUS
 62
     7
 10
-6.7
 20
-20.00000000000002
 30
0.0
 11
6.7
 21
-20.00000000000002
 31
0.0
  0
LINE
  5
7C78
  8
0
  6
CONTINUOUS
 62
     7
 10
13.29999999999999
 20
-20.00000000000002
 30
0.0
 11
26.7
 21
-20.00000000000002
 31
0.0
  0
LINE
  5
7C79
  8
0
  6
CONTINUOUS
 62
     7
 10
7.0606601717798
 20
-14.0
 30
0.0
 11
9.34641016151376
 21
-14.00000000000001
 31
0.0
  0
LINE
  5
7C7A
  8
0
  6
CONTINUOUS
 62
     7
 10
12.49999999999999
 20
-14.00000000000001
 30
0.0
 11
12.93933982822016
 21
-14.00000000000001
 31
0.0
  0
LINE
  5
7C7B
  8
0
  6
CONTINUOUS
 62
     7
 10
10.40358983848621
 20
-13.93301270189223
 30
0.0
 11
9.99999999999998
 21
-13.70000000000001
 31
0.0
  0
LINE
  5
7C7C
  8
0
  6
CONTINUOUS
 62
     7
 10
9.59641016151376
 20
-13.93301270189222
 30
0.0
 11
9.99999999999998
 21
-13.70000000000001
 31
0.0
  0
ARC
  5
7C7D
  8
0
  6
CONTINUOUS
 62
     7
 10
9.34641016151376
 20
-13.5
 30
0.0
 40
0.5
 50
270.0
 51
300.0
  0
LINE
  5
7C7E
  8
0
  6
CONTINUOUS
 62
     7
 10
12.49999999999999
 20
-14.00000000000001
 30
0.0
 11
11.21888562879329
 21
-13.75097659248408
 31
0.0
  0
ARC
  5
7C7F
  8
0
  6
CONTINUOUS
 62
     7
 10
10.65358983848621
 20
-13.5
 30
0.0
 40
0.5
 50
240.0
 51
300.0
  0
LINE
  5
7C80
  8
0
  6
CONTINUOUS
 62
     7
 10
10.90358983848621
 20
-13.93301270189223
 30
0.0
 11
11.21888562879329
 21
-13.75097659248408
 31
0.0
  0
LINE
  5
7C81
  8
0
  6
CONTINUOUS
 62
     7
 10
-12.9393398282202
 20
-14.0
 30
0.0
 11
-10.65358983848624
 21
-14.00000000000001
 31
0.0
  0
LINE
  5
7C82
  8
0
  6
CONTINUOUS
 62
     7
 10
-7.50000000000001
 20
-14.00000000000001
 30
0.0
 11
-7.06066017177984
 21
-14.00000000000001
 31
0.0
  0
LINE
  5
7C83
  8
0
  6
CONTINUOUS
 62
     7
 10
-9.59641016151379
 20
-13.93301270189223
 30
0.0
 11
-10.00000000000001
 21
-13.70000000000001
 31
0.0
  0
LINE
  5
7C84
  8
0
  6
CONTINUOUS
 62
     7
 10
-10.40358983848624
 20
-13.93301270189222
 30
0.0
 11
-10.00000000000001
 21
-13.70000000000001
 31
0.0
  0
ARC
  5
7C85
  8
0
  6
CONTINUOUS
 62
     7
 10
-10.65358983848624
 20
-13.5
 30
0.0
 40
0.5
 50
270.0
 51
300.0
  0
LINE
  5
7C86
  8
0
  6
CONTINUOUS
 62
     7
 10
-7.50000000000001
 20
-14.00000000000001
 30
0.0
 11
-8.78111437120671
 21
-13.75097659248408
 31
0.0
  0
ARC
  5
7C87
  8
0
  6
CONTINUOUS
 62
     7
 10
-9.34641016151379
 20
-13.5
 30
0.0
 40
0.5
 50
240.0
 51
300.0
  0
LINE
  5
7C88
  8
0
  6
CONTINUOUS
 62
     7
 10
-9.09641016151379
 20
-13.93301270189223
 30
0.0
 11
-8.78111437120671
 21
-13.75097659248408
 31
0.0
  0
LINE
  5
7C8F
  8
0
  6
CONTINUOUS
 62
     7
 10
-6.0
 20
-6.3
 30
0.0
 11
-6.0
 21
-7.5173938424846
 31
0.0
  0
LINE
  5
7C90
  8
0
  6
CONTINUOUS
 62
     7
 10
6.0
 20
-6.3
 30
0.0
 11
6.0
 21
-7.51739384248461
 31
0.0
  0
LINE
  5
7C91
  8
0
  6
CONTINUOUS
 62
     7
 10
13.0
 20
-6.0
 30
0.0
 11
6.3
 21
-6.0
 31
0.0
  0
LINE
  5
7C92
  8
0
  6
CONTINUOUS
 62
     7
 10
-6.3
 20
-6.0
 30
0.0
 11
-13.0
 21
-6.0
 31
0.0
  0
LINE
  5
7C94
  8
0
  6
CONTINUOUS
 62
     7
 10
-14.0
 20
-5.0
 30
0.0
 11
-13.99999999999999
 21
5.0
 31
0.0
  0
LINE
  5
7C95
  8
0
  6
CONTINUOUS
 62
     7
 10
6.15
 20
-7.77720146361995
 30
0.0
 11
7.93784093726986
 21
-8.80941191002094
 31
0.0
  0
LINE
  5
7C96
  8
0
  6
CONTINUOUS
 62
     7
 10
-6.15
 20
-7.77720146361994
 30
0.0
 11
-7.93784093726988
 21
-8.80941191002094
 31
0.0
  0
ARC
  5
7C9A
  8
0
  6
CONTINUOUS
 62
     7
 10
-13.0
 20
-5.0
 30
0.0
 40
1.0
 50
180.0
 51
270.0
  0
ARC
  5
7C9B
  8
0
  6
CONTINUOUS
 62
     7
 10
-8.08784093726988
 20
-8.5496042888856
 30
0.0
 40
0.3
 50
217.1807557814582
 51
299.9999999999997
  0
ARC
  5
7C9C
  8
0
  6
CONTINUOUS
 62
     7
 10
8.08784093726986
 20
-8.5496042888856
 30
0.0
 40
0.3
 50
239.9999999999998
 51
322.8192442185418
  0
ARC
  5
7C9D
  8
0
  6
CONTINUOUS
 62
     7
 10
6.3
 20
-7.51739384248461
 30
0.0
 40
0.3
 50
180.0
 51
240.0
  0
ARC
  5
7C9E
  8
0
  6
CONTINUOUS
 62
     7
 10
6.3
 20
-6.3
 30
0.0
 40
0.3
 50
90.0
 51
180.0
  0
ARC
  5
7C9F
  8
0
  6
CONTINUOUS
 62
     7
 10
-6.3
 20
-7.5173938424846
 30
0.0
 40
0.3
 50
300.0
 51
0.0
  0
ARC
  5
7CA0
  8
0
  6
CONTINUOUS
 62
     7
 10
-6.3
 20
-6.3
 30
0.0
 40
0.3
 50
0.0
 51
90.0
  0
ARC
  5
7CA1
  8
0
  6
CONTINUOUS
 62
     7
 10
8.01484364064908
 20
-11.34876025628301
 30
0.0
 40
0.3
 50
34.19307712513951
 51
135.0000000000001
  0
ARC
  5
7CA2
  8
0
  6
CONTINUOUS
 62
     7
 10
-8.01484364064909
 20
-11.34876025628301
 30
0.0
 40
0.3
 50
45.0
 51
145.8069228748609
  0
ARC
  5
7CA3
  8
0
  6
CONTINUOUS
 62
     7
 10
-10.0
 20
10.0
 30
0.0
 40
2.1
 50
34.19307712513951
 51
322.8192442185417
  0
ARC
  5
7CA4
  8
0
  6
CONTINUOUS
 62
     7
 10
-8.01484364064909
 20
11.34876025628301
 30
0.0
 40
0.3
 50
214.1930771251391
 51
315.0
  0
ARC
  5
7CA5
  8
0
  6
CONTINUOUS
 62
     7
 10
-8.08784093726988
 20
8.5496042888856
 30
0.0
 40
0.3
 50
60.00000000000028
 51
142.8192442185418
  0
ARC
  5
7CA6
  8
0
  6
CONTINUOUS
 62
     7
 10
9.99999999999999
 20
10.0
 30
0.0
 40
2.1
 50
217.1807557814583
 51
145.8069228748603
  0
ARC
  5
7CA7
  8
0
  6
CONTINUOUS
 62
     7
 10
8.01484364064908
 20
11.34876025628301
 30
0.0
 40
0.3
 50
224.9999999999999
 51
325.8069228748605
  0
ARC
  5
7CA8
  8
0
  6
CONTINUOUS
 62
     7
 10
8.08784093726986
 20
8.5496042888856
 30
0.0
 40
0.3
 50
37.18075578145822
 51
120.0000000000001
  0
LINE
  5
7CA9
  8
0
  6
CONTINUOUS
 62
     7
 10
6.0
 20
6.3
 30
0.0
 11
6.0
 21
7.51739384248461
 31
0.0
  0
LINE
  5
7CAA
  8
0
  6
CONTINUOUS
 62
     7
 10
-6.0
 20
6.3
 30
0.0
 11
-6.0
 21
7.5173938424846
 31
0.0
  0
ARC
  5
7CAB
  8
0
  6
CONTINUOUS
 62
     7
 10
-6.3
 20
7.5173938424846
 30
0.0
 40
0.3
 50
0.0
 51
60.00000000000005
  0
LINE
  5
7CAC
  8
0
  6
CONTINUOUS
 62
     7
 10
13.0
 20
6.0
 30
0.0
 11
6.3
 21
6.0
 31
0.0
  0
ARC
  5
7CAD
  8
0
  6
CONTINUOUS
 62
     7
 10
6.3
 20
6.3
 30
0.0
 40
0.3
 50
180.0
 51
270.0
  0
LINE
  5
7CAE
  8
0
  6
CONTINUOUS
 62
     7
 10
-6.3
 20
6.0
 30
0.0
 11
-13.0
 21
6.0
 31
0.0
  0
ARC
  5
7CAF
  8
0
  6
CONTINUOUS
 62
     7
 10
-6.3
 20
6.3
 30
0.0
 40
0.3
 50
270.0
 51
0.0
  0
ARC
  5
7CB0
  8
0
  6
CONTINUOUS
 62
     7
 10
-13.0
 20
5.0
 30
0.0
 40
1.0
 50
90.00000000000001
 51
180.0
  0
LINE
  5
7CB2
  8
0
  6
CONTINUOUS
 62
     7
 10
6.15
 20
7.77720146361995
 30
0.0
 11
7.93784093726986
 21
8.80941191002094
 31
0.0
  0
ARC
  5
7CB3
  8
0
  6
CONTINUOUS
 62
     7
 10
6.3
 20
7.51739384248461
 30
0.0
 40
0.3
 50
120.0
 51
180.0
  0
LINE
  5
7CB4
  8
0
  6
CONTINUOUS
 62
     7
 10
-6.15
 20
7.77720146361994
 30
0.0
 11
-7.93784093726988
 21
8.80941191002094
 31
0.0
  0
LINE
  5
7CB5
  8
0
  6
CONTINUOUS
 62
     7
 10
14.0
 20
-5.0
 30
0.0
 11
14.0
 21
5.0
 31
0.0
  0
ARC
  5
7CB6
  8
0
  6
CONTINUOUS
 62
     7
 10
13.0
 20
5.0
 30
0.0
 40
1.0
 50
0.0
 51
90.0
  0
ARC
  5
7CB7
  8
0
  6
CONTINUOUS
 62
     7
 10
13.0
 20
-5.0
 30
0.0
 40
1.0
 50
270.0
 51
0.0
  0
ARC
  5
7CB8
  8
0
  6
CONTINUOUS
 62
     7
 10
-32.52512626584709
 20
5.0
 30
0.0
 40
1.0
 50
90.0
 51
134.9999999999999
  0
ARC
  5
7CB9
  8
0
  6
CONTINUOUS
 62
     7
 10
-32.52512626584709
 20
-5.0
 30
0.0
 40
1.0
 50
225.0000000000001
 51
270.0
  0
ARC
  5
7CBA
  8
0
  6
CONTINUOUS
 62
     7
 10
-25.0
 20
-12.52512626584708
 30
0.0
 40
1.0
 50
180.0
 51
224.9999999999999
  0
ARC
  5
7CBB
  8
0
  6
CONTINUOUS
 62
     7
 10
-25.0
 20
12.52512626584708
 30
0.0
 40
1.0
 50
135.0000000000001
 51
180.0
  0
ARC
  5
7CBC
  8
0
  6
CONTINUOUS
 62
     7
 10
32.52512626584708
 20
5.00000000000001
 30
0.0
 40
1.0
 50
45.0000000000001
 51
90.00000000000006
  0
ARC
  5
7CBD
  8
0
  6
CONTINUOUS
 62
     7
 10
25.0
 20
12.52512626584709
 30
0.0
 40
1.0
 50
0.0
 51
44.99999999999991
  0
ARC
  5
7CBE
  8
0
  6
CONTINUOUS
 62
     7
 10
32.52512626584708
 20
-5.0
 30
0.0
 40
1.0
 50
270.0
 51
314.9999999999998
  0
ARC
  5
7CBF
  8
0
  6
CONTINUOUS
 62
     7
 10
25.0
 20
-12.52512626584709
 30
0.0
 40
1.0
 50
315.0000000000001
 51
0.0
  0
VIEWPORT
  5
6D16
 67
     1
  8
0
  6
CONTINUOUS
 62
     7
 10
128.5
 20
97.5
 30
0.0
 40
622.8745664739884
 41
222.18
 68
     1
 69
     1
1001
ACAD
1000
MVIEW
1002
{
1070
    16
1010
0.0
1020
0.0
1030
0.0
1020
0.0
1030
0.0
1010
0.0
1020
0.0
1030
1.0
1020
0.0
1030
1.0
1040
0.0
1040
222.18
1040
128.5
1040
97.5
1040
50.0
1040
0.0
1040
0.0
1070
     0
1070
  1000
1070
     1
1070
     1
1070
     0
1070
     0
1070
     0
1070
     0
1040
0.0
1040
0.0
1040
0.0
1040
10.0
1040
10.0
1040
10.0
1040
10.0
1070
     0
1002
{
1002
}
1002
}
  0
VIEWPORT
  5
6D1B
 67
     1
  8
0
  6
CONTINUOUS
 62
     7
 10
128.5
 20
97.5
 30
0.0
 40
205.6
 41
156.0
 68
     2
 69
     2
1001
ACAD
1000
MVIEW
1002
{
1070
    16
1010
0.0
1020
0.0
1030
0.0
1020
0.0
1030
0.0
1010
0.0
1020
0.0
1030
1.0
1020
0.0
1030
1.0
1040
0.0
1040
268.3438213011192
1040
166.0671124396817
1040
53.83540718451303
1040
50.0
1040
0.0
1040
0.0
1070
     0
1070
  1000
1070
     1
1070
     3
1070
     0
1070
     0
1070
     0
1070
     0
1040
0.0
1040
0.0
1040
0.0
1040
10.0
1040
10.0
1040
10.0
1040
10.0
1070
     0
1002
{
1002
}
1002
}
  0
ENDSEC
  0
EOF
