  0
SECTION
  2
HEADER
  9
$ACADVER
  1
AC1009
  9
$DWGCODEPAGE
  3
ansi_1252
  9
$INSBASE
 10
0.0
 20
0.0
 30
0.0
  9
$EXTMIN
 10
-27.4327324479541
 20
-30.00303821918476
 30
0.0
  9
$EXTMAX
 10
96.87296561419907
 20
14.5
 30
0.0
  9
$LIMMIN
 10
0.0
 20
0.0
  9
$LIMMAX
 10
420.0
 20
297.0
  9
$ORTHOMODE
 70
     0
  9
$REGENMODE
 70
     1
  9
$FILLMODE
 70
     1
  9
$QTEXTMODE
 70
     0
  9
$MIRRTEXT
 70
     0
  9
$DRAGMODE
 70
     2
  9
$LTSCALE
 40
1.0
  9
$OSMODE
 70
     0
  9
$ATTMODE
 70
     1
  9
$TEXTSIZE
 40
3.0
  9
$TRACEWID
 40
1.0
  9
$TEXTSTYLE
  7
STANDARD
  9
$CLAYER
  8
0
  9
$CELTYPE
  6
CONTINUOUS
  9
$CECOLOR
 62
   256
  9
$DIMSCALE
 40
1.0
  9
$DIMASZ
 40
2.5
  9
$DIMEXO
 40
0.625
  9
$DIMDLI
 40
3.75
  9
$DIMRND
 40
0.0
  9
$DIMDLE
 40
0.0
  9
$DIMEXE
 40
1.25
  9
$DIMTP
 40
0.0
  9
$DIMTM
 40
0.0
  9
$DIMTXT
 40
2.5
  9
$DIMCEN
 40
2.5
  9
$DIMTSZ
 40
0.0
  9
$DIMTOL
 70
     0
  9
$DIMLIM
 70
     0
  9
$DIMTIH
 70
     0
  9
$DIMTOH
 70
     0
  9
$DIMSE1
 70
     0
  9
$DIMSE2
 70
     0
  9
$DIMTAD
 70
     1
  9
$DIMZIN
 70
     8
  9
$DIMBLK
  1
OPEN30
  9
$DIMASO
 70
     1
  9
$DIMSHO
 70
     1
  9
$DIMPOST
  1

  9
$DIMAPOST
  1

  9
$DIMALT
 70
     0
  9
$DIMALTD
 70
     3
  9
$DIMALTF
 40
0.03937007874016
  9
$DIMLFAC
 40
1.0
  9
$DIMTOFL
 70
     1
  9
$DIMTVP
 40
0.0
  9
$DIMTIX
 70
     0
  9
$DIMSOXD
 70
     0
  9
$DIMSAH
 70
     0
  9
$DIMBLK1
  1

  9
$DIMBLK2
  1

  9
$DIMSTYLE
  2
MISUMI
  9
$DIMCLRD
 70
   137
  9
$DIMCLRE
 70
   137
  9
$DIMCLRT
 70
   137
  9
$DIMTFAC
 40
1.0
  9
$DIMGAP
 40
0.625
  9
$LUNITS
 70
     2
  9
$LUPREC
 70
     2
  9
$SKETCHINC
 40
1.0
  9
$FILLETRAD
 40
1.5
  9
$AUNITS
 70
     0
  9
$AUPREC
 70
     0
  9
$MENU
  1
.
  9
$ELEVATION
 40
0.0
  9
$PELEVATION
 40
0.0
  9
$THICKNESS
 40
0.0
  9
$LIMCHECK
 70
     0
  9
$CHAMFERA
 40
0.5
  9
$CHAMFERB
 40
0.5
  9
$SKPOLY
 70
     0
  9
$TDCREATE
 40
2455135.572069711
  9
$TDUPDATE
 40
2456752.741333426
  9
$TDINDWG
 40
0.170472338
  9
$TDUSRTIMER
 40
0.1704721644
  9
$USRTIMER
 70
     1
  9
$ANGBASE
 50
0.0
  9
$ANGDIR
 70
     0
  9
$PDMODE
 70
    35
  9
$PDSIZE
 40
0.0
  9
$PLINEWID
 40
0.0
  9
$COORDS
 70
     2
  9
$SPLFRAME
 70
     0
  9
$SPLINETYPE
 70
     6
  9
$SPLINESEGS
 70
     8
  9
$ATTDIA
 70
     0
  9
$ATTREQ
 70
     1
  9
$HANDLING
 70
     1
  9
$HANDSEED
  5
E078
  9
$SURFTAB1
 70
     6
  9
$SURFTAB2
 70
     6
  9
$SURFTYPE
 70
     6
  9
$SURFU
 70
     6
  9
$SURFV
 70
     6
  9
$UCSNAME
  2

  9
$UCSORG
 10
0.0
 20
0.0
 30
0.0
  9
$UCSXDIR
 10
1.0
 20
0.0
 30
0.0
  9
$UCSYDIR
 10
0.0
 20
1.0
 30
0.0
  9
$PUCSNAME
  2

  9
$PUCSORG
 10
0.0
 20
0.0
 30
0.0
  9
$PUCSXDIR
 10
1.0
 20
0.0
 30
0.0
  9
$PUCSYDIR
 10
0.0
 20
1.0
 30
0.0
  9
$USERI1
 70
     0
  9
$USERI2
 70
     0
  9
$USERI3
 70
     0
  9
$USERI4
 70
     0
  9
$USERI5
 70
     0
  9
$USERR1
 40
0.0
  9
$USERR2
 40
0.0
  9
$USERR3
 40
0.0
  9
$USERR4
 40
0.0
  9
$USERR5
 40
0.0
  9
$WORLDVIEW
 70
     1
  9
$SHADEDGE
 70
     3
  9
$SHADEDIF
 70
    70
  9
$TILEMODE
 70
     1
  9
$MAXACTVP
 70
    64
  9
$PLIMCHECK
 70
     0
  9
$PEXTMIN
 10
25.69999999999999
 20
19.5
 30
0.0
  9
$PEXTMAX
 10
231.3
 20
175.5
 30
0.0
  9
$PLIMMIN
 10
-20.0
 20
-7.5
  9
$PLIMMAX
 10
277.0
 20
202.5
  9
$UNITMODE
 70
     0
  9
$VISRETAIN
 70
     1
  9
$PLINEGEN
 70
     0
  9
$PSLTSCALE
 70
     1
  0
ENDSEC
  0
SECTION
  2
TABLES
  0
TABLE
  2
VPORT
 70
     1
  0
VPORT
  2
*ACTIVE
 70
     0
 10
0.0
 20
0.0
 11
1.0
 21
1.0
 12
0.0
 22
0.0
 13
0.0
 23
0.0
 14
10.0
 24
10.0
 15
10.0
 25
10.0
 16
0.0
 26
0.0
 36
1.0
 17
0.0
 27
0.0
 37
0.0
 40
40.72611307420495
 41
1.35244922341697
 42
50.0
 43
0.0
 44
0.0
 50
0.0
 51
0.0
 71
    16
 72
  1000
 73
     1
 74
     3
 75
     0
 76
     0
 77
     0
 78
     0
  0
ENDTAB
  0
TABLE
  2
LTYPE
 70
     5
  0
LTYPE
  2
CONTINUOUS
 70
     0
  3
Solid line
 72
    65
 73
     0
 40
0.0
  0
LTYPE
  2
CENTER
 70
     0
  3
Center ____ _ ____ _ ____ _ ____ _ ____ _ ____
 72
    65
 73
     4
 40
50.8
 49
31.75
 49
-6.35
 49
6.35
 49
-6.35
  0
LTYPE
  2
DASHED
 70
     0
  3
Dashed __ __ __ __ __ __ __ __ __ __ __ __ __ _
 72
    65
 73
     2
 40
19.05
 49
12.7
 49
-6.35
  0
LTYPE
  2
PHANTOM
 70
     0
  3
Phantom ______  __  __  ______  __  __  ______
 72
    65
 73
     6
 40
63.49999999999999
 49
31.75
 49
-6.35
 49
6.35
 49
-6.35
 49
6.35
 49
-6.35
  0
LTYPE
  2
DASHED2
 70
     0
  3
_ _ _ _ _ _ _ _ _ _ _ _ _ _ _ _ _ _ _ _ _ _ _ _
 72
    65
 73
     2
 40
0.375
 49
0.25
 49
-0.125
  0
ENDTAB
  0
TABLE
  2
LAYER
 70
     3
  0
LAYER
  2
0
 70
     0
 62
     7
  6
CONTINUOUS
  0
LAYER
  2
CENTER
 70
     0
 62
     1
  6
CENTER
  0
LAYER
  2
DEFPOINTS
 70
     0
 62
     7
  6
CONTINUOUS
  0
ENDTAB
  0
TABLE
  2
STYLE
 70
     1
  0
STYLE
  2
STANDARD
 70
     0
 40
3.0
 41
1.0
 50
0.0
 71
     0
 42
3.0
  3
txt.shx
  4
bigfont.shx
  0
ENDTAB
  0
TABLE
  2
VIEW
 70
     0
  0
ENDTAB
  0
TABLE
  2
UCS
 70
     0
  0
ENDTAB
  0
TABLE
  2
APPID
 70
    10
  0
APPID
  2
ACAD
 70
     0
  0
APPID
  2
ACAD_MLEADERVER
 70
     0
  0
APPID
  2
ACAD_EXEMPT_FROM_CAD_STAND
 70
     0
  0
APPID
  2
ACDBBLOCKREPETAG
 70
     0
  0
APPID
  2
ACAD_DSTYLE_DIMJOGGED_JOGA
 70
     0
  0
APPID
  2
ACAECLAYERSTANDARD
 70
     0
  0
APPID
  2
GENIUS_GENODEF_13
 70
     0
  0
APPID
  2
GENIUS_GENOBJ-N-FIL_13
 70
     0
  0
APPID
  2
ACAD_PSEXT
 70
     0
  0
APPID
  2
ACAD_DSTYLE_DIMRADIAL_EXTE
 70
     0
  0
ENDTAB
  0
TABLE
  2
DIMSTYLE
 70
     1
  0
DIMSTYLE
  2
MISUMI
 70
     0
  3

  4

  5
OPEN30
  6

  7

 40
1.0
 41
2.5
 42
0.625
 43
3.75
 44
1.25
 45
0.0
 46
0.0
 47
0.0
 48
0.0
140
2.5
141
2.5
142
0.0
143
0.03937007874016
144
1.0
145
0.0
146
1.0
147
0.625
 71
     0
 72
     0
 73
     0
 74
     0
 75
     0
 76
     0
 77
     1
 78
     8
170
     0
171
     3
172
     1
173
     0
174
     0
175
     0
176
   137
177
   137
178
   137
  0
ENDTAB
  0
ENDSEC
  0
SECTION
  2
BLOCKS
  0
BLOCK
  8
0
  2
$MODEL_SPACE
 70
     0
 10
0.0
 20
0.0
 30
0.0
  3
$MODEL_SPACE
  1

  0
ENDBLK
  5
21
  8
0
  0
BLOCK
 67
     1
  8
0
  2
$PAPER_SPACE
 70
     0
 10
0.0
 20
0.0
 30
0.0
  3
$PAPER_SPACE
  1

  0
ENDBLK
  5
58
 67
     1
  8
0
  0
BLOCK
  8
0
  2
_OPEN30
 70
     0
 10
0.0
 20
0.0
 30
0.0
  3
_OPEN30
  1

  0
LINE
  5
D7
  8
0
  6
BYBLOCK
 62
     0
 10
-1.0
 20
0.26794919
 30
0.0
 11
0.0
 21
0.0
 31
0.0
  0
LINE
  5
D8
  8
0
  6
BYBLOCK
 62
     0
 10
0.0
 20
0.0
 30
0.0
 11
-1.0
 21
-0.26794919
 31
0.0
  0
LINE
  5
D9
  8
0
  6
BYBLOCK
 62
     0
 10
0.0
 20
0.0
 30
0.0
 11
-1.0
 21
0.0
 31
0.0
  0
ENDBLK
  5
DB
  8
0
 62
     7
  0
BLOCK
  8
0
  2
*U1
 70
     1
 10
0.0
 20
0.0
 30
0.0
  3
*U1
  1

  0
TEXT
  5
7BF4
  8
0
  6
CONTINUOUS
 62
     7
 10
-27.4327324479541
 20
-25.32790045804637
 30
0.0
 40
3.0
  1
NF5-2550-L50
  0
ENDBLK
  5
7BF6
  8
0
 62
     7
  0
BLOCK
  8
0
  2
*U2
 70
     1
 10
0.0
 20
0.0
 30
0.0
  3
*U2
  1

  0
TEXT
  5
7BF8
  8
0
  6
CONTINUOUS
 62
     7
 10
-27.4327324479541
 20
-30.00303821918476
 30
0.0
 40
3.0
  1
NF5-2550
  0
ENDBLK
  5
7BFA
  8
0
 62
     7
  0
ENDSEC
  0
SECTION
  2
ENTITIES
  0
LINE
  5
78D8
  8
CENTER
  6
CENTER
 62
     1
 10
0.0
 20
14.5
 30
0.0
 11
0.0
 21
-14.5
 31
0.0
  0
LINE
  5
78D9
  8
CENTER
  6
CENTER
 62
     1
 10
27.0
 20
0.0
 30
0.0
 11
-27.0
 21
0.0
 31
0.0
  0
LINE
  5
78DA
  8
0
  6
CONTINUOUS
 62
     7
 10
24.0
 20
12.5
 30
0.0
 11
15.8
 21
12.5
 31
0.0
  0
LINE
  5
78DB
  8
0
  6
CONTINUOUS
 62
     7
 10
24.0
 20
-12.5
 30
0.0
 11
15.8
 21
-12.5
 31
0.0
  0
LINE
  5
78DC
  8
0
  6
CONTINUOUS
 62
     7
 10
-25.0
 20
11.5
 30
0.0
 11
-25.0
 21
3.3
 31
0.0
  0
LINE
  5
78DD
  8
0
  6
CONTINUOUS
 62
     7
 10
25.0
 20
11.5
 30
0.0
 11
25.0
 21
3.30000000000001
 31
0.0
  0
LINE
  5
78DE
  8
CENTER
  6
CENTER
 62
     1
 10
12.5
 20
14.5
 30
0.0
 11
12.5
 21
-14.5
 31
0.0
  0
LINE
  5
78DF
  8
CENTER
  6
CENTER
 62
     1
 10
-12.5
 20
14.5
 30
0.0
 11
-12.5
 21
-14.5
 31
0.0
  0
LINE
  5
78FE
  8
0
  6
CONTINUOUS
 62
     7
 10
-9.56066017177981
 20
6.49999999999999
 30
0.0
 11
-11.84641016151376
 21
6.49999999999999
 31
0.0
  0
LINE
  5
78FF
  8
0
  6
CONTINUOUS
 62
     7
 10
-15.0
 20
6.49999999999999
 30
0.0
 11
-15.43933982822017
 21
6.49999999999999
 31
0.0
  0
ARC
  5
7900
  8
0
  6
CONTINUOUS
 62
     7
 10
-9.2
 20
12.2
 30
0.0
 40
0.3
 50
90.0
 51
180.0
  0
LINE
  5
7901
  8
0
  6
CONTINUOUS
 62
     7
 10
-6.49999999999999
 20
10.49999999999999
 30
0.0
 11
-9.2
 21
10.49999999999999
 31
0.0
  0
ARC
  5
7902
  8
0
  6
CONTINUOUS
 62
     7
 10
-9.2
 20
10.79999999999999
 30
0.0
 40
0.3
 50
180.0
 51
270.0
  0
LINE
  5
7903
  8
0
  6
CONTINUOUS
 62
     7
 10
-15.8
 20
10.49999999999999
 30
0.0
 11
-18.5
 21
10.49999999999999
 31
0.0
  0
ARC
  5
7904
  8
0
  6
CONTINUOUS
 62
     7
 10
-15.8
 20
10.79999999999999
 30
0.0
 40
0.3
 50
270.0
 51
0.0
  0
LINE
  5
7905
  8
0
  6
CONTINUOUS
 62
     7
 10
-18.5
 20
9.56066017177983
 30
0.0
 11
-18.5
 21
10.49999999999999
 31
0.0
  0
LINE
  5
7906
  8
0
  6
CONTINUOUS
 62
     7
 10
-6.49999999999999
 20
9.56066017177981
 30
0.0
 11
-6.49999999999999
 21
10.49999999999999
 31
0.0
  0
LINE
  5
7907
  8
0
  6
CONTINUOUS
 62
     7
 10
-15.5
 20
10.79999999999999
 30
0.0
 11
-15.5
 21
12.2
 31
0.0
  0
ARC
  5
7908
  8
0
  6
CONTINUOUS
 62
     7
 10
-15.8
 20
12.2
 30
0.0
 40
0.3
 50
0.0
 51
90.0
  0
LINE
  5
7909
  8
0
  6
CONTINUOUS
 62
     7
 10
-9.49999999999999
 20
10.79999999999999
 30
0.0
 11
-9.49999999999999
 21
12.2
 31
0.0
  0
LINE
  5
790A
  8
0
  6
CONTINUOUS
 62
     7
 10
-12.90358983848622
 20
6.43301270189221
 30
0.0
 11
-12.49999999999999
 21
6.19999999999999
 31
0.0
  0
LINE
  5
790B
  8
0
  6
CONTINUOUS
 62
     7
 10
-12.09641016151376
 20
6.43301270189221
 30
0.0
 11
-12.49999999999999
 21
6.19999999999999
 31
0.0
  0
ARC
  5
790C
  8
0
  6
CONTINUOUS
 62
     7
 10
-11.84641016151376
 20
5.99999999999999
 30
0.0
 40
0.5
 50
90.0
 51
120.0000000000002
  0
LINE
  5
790D
  8
0
  6
CONTINUOUS
 62
     7
 10
-15.43933982822017
 20
6.49999999999999
 30
0.0
 11
-18.5
 21
9.56066017177983
 31
0.0
  0
LINE
  5
790E
  8
0
  6
CONTINUOUS
 62
     7
 10
-9.56066017177981
 20
6.49999999999999
 30
0.0
 11
-6.49999999999999
 21
9.56066017177983
 31
0.0
  0
LINE
  5
790F
  8
0
  6
CONTINUOUS
 62
     7
 10
-15.0
 20
6.49999999999999
 30
0.0
 11
-13.7188856287933
 21
6.25097659248406
 31
0.0
  0
ARC
  5
7910
  8
0
  6
CONTINUOUS
 62
     7
 10
-13.15358983848622
 20
5.99999999999999
 30
0.0
 40
0.5
 50
59.99999999999979
 51
120.0000000000002
  0
LINE
  5
7911
  8
0
  6
CONTINUOUS
 62
     7
 10
-13.40358983848622
 20
6.43301270189221
 30
0.0
 11
-13.7188856287933
 21
6.25097659248406
 31
0.0
  0
LINE
  5
792C
  8
0
  6
CONTINUOUS
 62
     7
 10
15.43933982822019
 20
6.49999999999999
 30
0.0
 11
13.15358983848623
 21
6.49999999999999
 31
0.0
  0
LINE
  5
792D
  8
0
  6
CONTINUOUS
 62
     7
 10
10.0
 20
6.49999999999999
 30
0.0
 11
9.56066017177983
 21
6.49999999999999
 31
0.0
  0
ARC
  5
792E
  8
0
  6
CONTINUOUS
 62
     7
 10
15.8
 20
12.2
 30
0.0
 40
0.3
 50
90.0
 51
180.0
  0
LINE
  5
792F
  8
0
  6
CONTINUOUS
 62
     7
 10
18.50000000000001
 20
10.49999999999999
 30
0.0
 11
15.8
 21
10.49999999999999
 31
0.0
  0
ARC
  5
7930
  8
0
  6
CONTINUOUS
 62
     7
 10
15.8
 20
10.79999999999999
 30
0.0
 40
0.3
 50
180.0
 51
270.0
  0
LINE
  5
7931
  8
0
  6
CONTINUOUS
 62
     7
 10
9.2
 20
10.49999999999999
 30
0.0
 11
6.5
 21
10.49999999999999
 31
0.0
  0
ARC
  5
7932
  8
0
  6
CONTINUOUS
 62
     7
 10
9.2
 20
10.79999999999999
 30
0.0
 40
0.3
 50
270.0
 51
0.0
  0
LINE
  5
7933
  8
0
  6
CONTINUOUS
 62
     7
 10
6.5
 20
9.56066017177983
 30
0.0
 11
6.5
 21
10.49999999999999
 31
0.0
  0
LINE
  5
7934
  8
0
  6
CONTINUOUS
 62
     7
 10
18.50000000000001
 20
9.56066017177981
 30
0.0
 11
18.50000000000001
 21
10.49999999999999
 31
0.0
  0
LINE
  5
7935
  8
0
  6
CONTINUOUS
 62
     7
 10
9.5
 20
10.79999999999999
 30
0.0
 11
9.5
 21
12.2
 31
0.0
  0
ARC
  5
7936
  8
0
  6
CONTINUOUS
 62
     7
 10
9.2
 20
12.2
 30
0.0
 40
0.3
 50
0.0
 51
90.0
  0
LINE
  5
7937
  8
0
  6
CONTINUOUS
 62
     7
 10
15.5
 20
10.79999999999999
 30
0.0
 11
15.5
 21
12.2
 31
0.0
  0
LINE
  5
7938
  8
0
  6
CONTINUOUS
 62
     7
 10
12.09641016151378
 20
6.43301270189221
 30
0.0
 11
12.50000000000001
 21
6.19999999999999
 31
0.0
  0
LINE
  5
7939
  8
0
  6
CONTINUOUS
 62
     7
 10
12.90358983848623
 20
6.43301270189221
 30
0.0
 11
12.50000000000001
 21
6.19999999999999
 31
0.0
  0
ARC
  5
793A
  8
0
  6
CONTINUOUS
 62
     7
 10
13.15358983848623
 20
5.99999999999999
 30
0.0
 40
0.5
 50
90.0
 51
120.0000000000002
  0
LINE
  5
793B
  8
0
  6
CONTINUOUS
 62
     7
 10
9.56066017177983
 20
6.49999999999999
 30
0.0
 11
6.5
 21
9.56066017177983
 31
0.0
  0
LINE
  5
793C
  8
0
  6
CONTINUOUS
 62
     7
 10
15.43933982822019
 20
6.49999999999999
 30
0.0
 11
18.50000000000001
 21
9.56066017177983
 31
0.0
  0
LINE
  5
793D
  8
0
  6
CONTINUOUS
 62
     7
 10
10.0
 20
6.49999999999999
 30
0.0
 11
11.28111437120669
 21
6.25097659248406
 31
0.0
  0
ARC
  5
793E
  8
0
  6
CONTINUOUS
 62
     7
 10
11.84641016151378
 20
5.99999999999999
 30
0.0
 40
0.5
 50
59.99999999999979
 51
120.0000000000002
  0
LINE
  5
793F
  8
0
  6
CONTINUOUS
 62
     7
 10
11.59641016151378
 20
6.43301270189221
 30
0.0
 11
11.28111437120669
 21
6.25097659248406
 31
0.0
  0
LINE
  5
7940
  8
0
  6
CONTINUOUS
 62
     7
 10
9.2
 20
12.5
 30
0.0
 11
-9.2
 21
12.5
 31
0.0
  0
LINE
  5
7941
  8
0
  6
CONTINUOUS
 62
     7
 10
-15.8
 20
12.5
 30
0.0
 11
-24.0
 21
12.5
 31
0.0
  0
LINE
  5
795C
  8
0
  6
CONTINUOUS
 62
     7
 10
-19.0
 20
-2.93933982822018
 30
0.0
 11
-19.0
 21
-2.50000000000001
 31
0.0
  0
LINE
  5
795D
  8
0
  6
CONTINUOUS
 62
     7
 10
-19.0
 20
0.65358983848622
 30
0.0
 11
-19.0
 21
2.93933982822018
 31
0.0
  0
ARC
  5
795E
  8
0
  6
CONTINUOUS
 62
     7
 10
-24.70000000000001
 20
-3.3
 30
0.0
 40
0.3
 50
90.0
 51
180.0
  0
LINE
  5
795F
  8
0
  6
CONTINUOUS
 62
     7
 10
-23.0
 20
-6.0
 30
0.0
 11
-23.0
 21
-3.3
 31
0.0
  0
ARC
  5
7960
  8
0
  6
CONTINUOUS
 62
     7
 10
-23.3
 20
-3.3
 30
0.0
 40
0.3
 50
0.0
 51
90.0
  0
LINE
  5
7961
  8
0
  6
CONTINUOUS
 62
     7
 10
-23.0
 20
3.3
 30
0.0
 11
-23.0
 21
6.0
 31
0.0
  0
ARC
  5
7962
  8
0
  6
CONTINUOUS
 62
     7
 10
-23.3
 20
3.3
 30
0.0
 40
0.3
 50
270.0
 51
0.0
  0
LINE
  5
7963
  8
0
  6
CONTINUOUS
 62
     7
 10
-22.06066017177983
 20
6.0
 30
0.0
 11
-23.0
 21
6.0
 31
0.0
  0
LINE
  5
7964
  8
0
  6
CONTINUOUS
 62
     7
 10
-22.06066017177982
 20
-6.0
 30
0.0
 11
-23.0
 21
-6.0
 31
0.0
  0
LINE
  5
7965
  8
0
  6
CONTINUOUS
 62
     7
 10
-23.3
 20
3.0
 30
0.0
 11
-24.70000000000001
 21
3.0
 31
0.0
  0
ARC
  5
7966
  8
0
  6
CONTINUOUS
 62
     7
 10
-24.70000000000001
 20
3.3
 30
0.0
 40
0.3
 50
180.0
 51
270.0
  0
LINE
  5
7967
  8
0
  6
CONTINUOUS
 62
     7
 10
-23.3
 20
-3.0
 30
0.0
 11
-24.70000000000001
 21
-3.0
 31
0.0
  0
LINE
  5
7968
  8
0
  6
CONTINUOUS
 62
     7
 10
-19.0
 20
2.93933982822018
 30
0.0
 11
-22.06066017177983
 21
6.0
 31
0.0
  0
LINE
  5
7969
  8
0
  6
CONTINUOUS
 62
     7
 10
-19.0
 20
-2.93933982822018
 30
0.0
 11
-22.06066017177983
 21
-6.0
 31
0.0
  0
LINE
  5
796A
  8
0
  6
CONTINUOUS
 62
     7
 10
-18.93301270189222
 20
-0.40358983848623
 30
0.0
 11
-18.7
 21
0.0
 31
0.0
  0
LINE
  5
796B
  8
0
  6
CONTINUOUS
 62
     7
 10
-18.93301270189222
 20
0.40358983848622
 30
0.0
 11
-18.7
 21
0.0
 31
0.0
  0
ARC
  5
796C
  8
0
  6
CONTINUOUS
 62
     7
 10
-18.5
 20
0.65358983848622
 30
0.0
 40
0.5
 50
180.0
 51
210.0000000000001
  0
LINE
  5
796D
  8
0
  6
CONTINUOUS
 62
     7
 10
-19.0
 20
-2.5
 30
0.0
 11
-18.75097659248407
 21
-1.21888562879331
 31
0.0
  0
ARC
  5
796E
  8
0
  6
CONTINUOUS
 62
     7
 10
-18.5
 20
-0.65358983848623
 30
0.0
 40
0.5
 50
149.9999999999998
 51
210.0000000000001
  0
LINE
  5
796F
  8
0
  6
CONTINUOUS
 62
     7
 10
-18.93301270189222
 20
-0.90358983848623
 30
0.0
 11
-18.75097659248407
 21
-1.21888562879331
 31
0.0
  0
LINE
  5
798A
  8
0
  6
CONTINUOUS
 62
     7
 10
-9.56066017177982
 20
-6.50000000000001
 30
0.0
 11
-10.00000000000003
 21
-6.50000000000001
 31
0.0
  0
LINE
  5
798B
  8
0
  6
CONTINUOUS
 62
     7
 10
-13.15358983848623
 20
-6.50000000000001
 30
0.0
 11
-15.43933982822018
 21
-6.50000000000001
 31
0.0
  0
ARC
  5
798C
  8
0
  6
CONTINUOUS
 62
     7
 10
-9.2
 20
-12.2
 30
0.0
 40
0.3
 50
180.0
 51
270.0
  0
LINE
  5
798D
  8
0
  6
CONTINUOUS
 62
     7
 10
-6.50000000000001
 20
-10.5
 30
0.0
 11
-9.2
 21
-10.5
 31
0.0
  0
ARC
  5
798E
  8
0
  6
CONTINUOUS
 62
     7
 10
-9.2
 20
-10.8
 30
0.0
 40
0.3
 50
90.0
 51
180.0
  0
LINE
  5
798F
  8
0
  6
CONTINUOUS
 62
     7
 10
-15.80000000000001
 20
-10.5
 30
0.0
 11
-18.5
 21
-10.5
 31
0.0
  0
ARC
  5
7990
  8
0
  6
CONTINUOUS
 62
     7
 10
-15.80000000000001
 20
-10.8
 30
0.0
 40
0.3
 50
0.0
 51
90.0
  0
LINE
  5
7991
  8
0
  6
CONTINUOUS
 62
     7
 10
-18.5
 20
-9.56066017177983
 30
0.0
 11
-18.5
 21
-10.5
 31
0.0
  0
LINE
  5
7992
  8
0
  6
CONTINUOUS
 62
     7
 10
-6.50000000000001
 20
-9.56066017177982
 30
0.0
 11
-6.50000000000001
 21
-10.5
 31
0.0
  0
LINE
  5
7993
  8
0
  6
CONTINUOUS
 62
     7
 10
-15.5
 20
-10.8
 30
0.0
 11
-15.5
 21
-12.2
 31
0.0
  0
ARC
  5
7994
  8
0
  6
CONTINUOUS
 62
     7
 10
-15.80000000000001
 20
-12.2
 30
0.0
 40
0.3
 50
270.0
 51
0.0
  0
LINE
  5
7995
  8
0
  6
CONTINUOUS
 62
     7
 10
-9.5
 20
-10.8
 30
0.0
 11
-9.50000000000001
 21
-12.2
 31
0.0
  0
LINE
  5
7996
  8
0
  6
CONTINUOUS
 62
     7
 10
-15.43933982822018
 20
-6.50000000000001
 30
0.0
 11
-18.5
 21
-9.56066017177983
 31
0.0
  0
LINE
  5
7997
  8
0
  6
CONTINUOUS
 62
     7
 10
-9.56066017177982
 20
-6.50000000000001
 30
0.0
 11
-6.50000000000001
 21
-9.56066017177983
 31
0.0
  0
LINE
  5
7998
  8
0
  6
CONTINUOUS
 62
     7
 10
-12.09641016151377
 20
-6.43301270189223
 30
0.0
 11
-12.5
 21
-6.20000000000001
 31
0.0
  0
LINE
  5
7999
  8
0
  6
CONTINUOUS
 62
     7
 10
-12.90358983848622
 20
-6.43301270189223
 30
0.0
 11
-12.5
 21
-6.20000000000001
 31
0.0
  0
ARC
  5
799A
  8
0
  6
CONTINUOUS
 62
     7
 10
-13.15358983848623
 20
-6.00000000000001
 30
0.0
 40
0.5
 50
270.0
 51
300.0
  0
LINE
  5
799B
  8
0
  6
CONTINUOUS
 62
     7
 10
-10.0
 20
-6.50000000000001
 30
0.0
 11
-11.28111437120669
 21
-6.25097659248408
 31
0.0
  0
ARC
  5
799C
  8
0
  6
CONTINUOUS
 62
     7
 10
-11.84641016151377
 20
-6.00000000000001
 30
0.0
 40
0.5
 50
240.0
 51
300.0
  0
LINE
  5
799D
  8
0
  6
CONTINUOUS
 62
     7
 10
-11.59641016151377
 20
-6.43301270189223
 30
0.0
 11
-11.28111437120669
 21
-6.25097659248408
 31
0.0
  0
LINE
  5
79B8
  8
0
  6
CONTINUOUS
 62
     7
 10
15.43933982822017
 20
-6.50000000000001
 30
0.0
 11
14.99999999999997
 21
-6.50000000000001
 31
0.0
  0
LINE
  5
79B9
  8
0
  6
CONTINUOUS
 62
     7
 10
11.84641016151377
 20
-6.50000000000001
 30
0.0
 11
9.56066017177982
 21
-6.50000000000001
 31
0.0
  0
ARC
  5
79BA
  8
0
  6
CONTINUOUS
 62
     7
 10
15.8
 20
-12.2
 30
0.0
 40
0.3
 50
180.0
 51
270.0
  0
LINE
  5
79BB
  8
0
  6
CONTINUOUS
 62
     7
 10
18.49999999999999
 20
-10.5
 30
0.0
 11
15.8
 21
-10.5
 31
0.0
  0
ARC
  5
79BC
  8
0
  6
CONTINUOUS
 62
     7
 10
15.8
 20
-10.8
 30
0.0
 40
0.3
 50
90.0
 51
180.0
  0
LINE
  5
79BD
  8
0
  6
CONTINUOUS
 62
     7
 10
9.19999999999999
 20
-10.5
 30
0.0
 11
6.5
 21
-10.5
 31
0.0
  0
ARC
  5
79BE
  8
0
  6
CONTINUOUS
 62
     7
 10
9.19999999999999
 20
-10.8
 30
0.0
 40
0.3
 50
0.0
 51
90.0
  0
LINE
  5
79BF
  8
0
  6
CONTINUOUS
 62
     7
 10
6.5
 20
-9.56066017177983
 30
0.0
 11
6.5
 21
-10.5
 31
0.0
  0
LINE
  5
79C0
  8
0
  6
CONTINUOUS
 62
     7
 10
18.49999999999999
 20
-9.56066017177982
 30
0.0
 11
18.49999999999999
 21
-10.5
 31
0.0
  0
LINE
  5
79C1
  8
0
  6
CONTINUOUS
 62
     7
 10
9.5
 20
-10.8
 30
0.0
 11
9.5
 21
-12.2
 31
0.0
  0
ARC
  5
79C2
  8
0
  6
CONTINUOUS
 62
     7
 10
9.19999999999999
 20
-12.2
 30
0.0
 40
0.3
 50
270.0
 51
0.0
  0
LINE
  5
79C3
  8
0
  6
CONTINUOUS
 62
     7
 10
15.5
 20
-10.8
 30
0.0
 11
15.49999999999999
 21
-12.2
 31
0.0
  0
LINE
  5
79C4
  8
0
  6
CONTINUOUS
 62
     7
 10
9.56066017177982
 20
-6.50000000000001
 30
0.0
 11
6.5
 21
-9.56066017177983
 31
0.0
  0
LINE
  5
79C5
  8
0
  6
CONTINUOUS
 62
     7
 10
15.43933982822017
 20
-6.50000000000001
 30
0.0
 11
18.49999999999999
 21
-9.56066017177983
 31
0.0
  0
LINE
  5
79C6
  8
0
  6
CONTINUOUS
 62
     7
 10
12.90358983848622
 20
-6.43301270189223
 30
0.0
 11
12.5
 21
-6.20000000000001
 31
0.0
  0
LINE
  5
79C7
  8
0
  6
CONTINUOUS
 62
     7
 10
12.09641016151377
 20
-6.43301270189223
 30
0.0
 11
12.5
 21
-6.20000000000001
 31
0.0
  0
ARC
  5
79C8
  8
0
  6
CONTINUOUS
 62
     7
 10
11.84641016151377
 20
-6.00000000000001
 30
0.0
 40
0.5
 50
270.0
 51
300.0
  0
LINE
  5
79C9
  8
0
  6
CONTINUOUS
 62
     7
 10
15.0
 20
-6.50000000000001
 30
0.0
 11
13.71888562879331
 21
-6.25097659248408
 31
0.0
  0
ARC
  5
79CA
  8
0
  6
CONTINUOUS
 62
     7
 10
13.15358983848623
 20
-6.00000000000001
 30
0.0
 40
0.5
 50
240.0
 51
300.0
  0
LINE
  5
79CB
  8
0
  6
CONTINUOUS
 62
     7
 10
13.40358983848622
 20
-6.43301270189223
 30
0.0
 11
13.71888562879331
 21
-6.25097659248408
 31
0.0
  0
LINE
  5
79E6
  8
0
  6
CONTINUOUS
 62
     7
 10
19.0
 20
-2.93933982822017
 30
0.0
 11
18.99999999999998
 21
-0.65358983848621
 31
0.0
  0
LINE
  5
79E7
  8
0
  6
CONTINUOUS
 62
     7
 10
18.99999999999998
 20
2.50000000000002
 30
0.0
 11
18.99999999999998
 21
2.93933982822019
 31
0.0
  0
ARC
  5
79E8
  8
0
  6
CONTINUOUS
 62
     7
 10
24.7
 20
-3.29999999999999
 30
0.0
 40
0.3
 50
0.0
 51
90.0
  0
LINE
  5
79E9
  8
0
  6
CONTINUOUS
 62
     7
 10
23.0
 20
-5.99999999999999
 30
0.0
 11
23.0
 21
-3.29999999999999
 31
0.0
  0
ARC
  5
79EA
  8
0
  6
CONTINUOUS
 62
     7
 10
23.3
 20
-3.29999999999999
 30
0.0
 40
0.3
 50
90.0
 51
180.0
  0
LINE
  5
79EB
  8
0
  6
CONTINUOUS
 62
     7
 10
23.0
 20
3.30000000000001
 30
0.0
 11
22.99999999999998
 21
6.00000000000001
 31
0.0
  0
ARC
  5
79EC
  8
0
  6
CONTINUOUS
 62
     7
 10
23.3
 20
3.30000000000001
 30
0.0
 40
0.3
 50
180.0
 51
270.0
  0
LINE
  5
79ED
  8
0
  6
CONTINUOUS
 62
     7
 10
22.06066017177981
 20
6.00000000000001
 30
0.0
 11
22.99999999999998
 21
6.00000000000001
 31
0.0
  0
LINE
  5
79EE
  8
0
  6
CONTINUOUS
 62
     7
 10
22.06066017177981
 20
-5.99999999999999
 30
0.0
 11
23.0
 21
-5.99999999999999
 31
0.0
  0
LINE
  5
79EF
  8
0
  6
CONTINUOUS
 62
     7
 10
23.3
 20
3.00000000000001
 30
0.0
 11
24.7
 21
3.00000000000001
 31
0.0
  0
ARC
  5
79F0
  8
0
  6
CONTINUOUS
 62
     7
 10
24.7
 20
3.30000000000001
 30
0.0
 40
0.3
 50
270.0
 51
0.0
  0
LINE
  5
79F1
  8
0
  6
CONTINUOUS
 62
     7
 10
23.3
 20
-2.99999999999999
 30
0.0
 11
24.7
 21
-2.99999999999999
 31
0.0
  0
LINE
  5
79F2
  8
0
  6
CONTINUOUS
 62
     7
 10
18.99999999999998
 20
2.93933982822019
 30
0.0
 11
22.06066017177981
 21
6.00000000000001
 31
0.0
  0
LINE
  5
79F3
  8
0
  6
CONTINUOUS
 62
     7
 10
19.0
 20
-2.93933982822017
 30
0.0
 11
22.06066017177981
 21
-5.99999999999999
 31
0.0
  0
LINE
  5
79F4
  8
0
  6
CONTINUOUS
 62
     7
 10
18.9330127018922
 20
0.40358983848624
 30
0.0
 11
18.69999999999998
 21
0.00000000000001
 31
0.0
  0
LINE
  5
79F5
  8
0
  6
CONTINUOUS
 62
     7
 10
18.9330127018922
 20
-0.40358983848621
 30
0.0
 11
18.69999999999998
 21
0.00000000000001
 31
0.0
  0
ARC
  5
79F6
  8
0
  6
CONTINUOUS
 62
     7
 10
18.49999999999998
 20
-0.65358983848621
 30
0.0
 40
0.5
 50
0.0
 51
30.00000000000019
  0
LINE
  5
79F7
  8
0
  6
CONTINUOUS
 62
     7
 10
18.99999999999998
 20
2.50000000000001
 30
0.0
 11
18.75097659248406
 21
1.21888562879332
 31
0.0
  0
ARC
  5
79F8
  8
0
  6
CONTINUOUS
 62
     7
 10
18.49999999999998
 20
0.65358983848624
 30
0.0
 40
0.5
 50
329.9999999999999
 51
30.00000000000019
  0
LINE
  5
79F9
  8
0
  6
CONTINUOUS
 62
     7
 10
18.9330127018922
 20
0.90358983848624
 30
0.0
 11
18.75097659248406
 21
1.21888562879332
 31
0.0
  0
LINE
  5
79FA
  8
0
  6
CONTINUOUS
 62
     7
 10
25.0
 20
-3.29999999999999
 30
0.0
 11
25.0
 21
-11.5
 31
0.0
  0
LINE
  5
79FB
  8
0
  6
CONTINUOUS
 62
     7
 10
9.19999999999999
 20
-12.5
 30
0.0
 11
-9.2
 21
-12.5
 31
0.0
  0
LINE
  5
79FC
  8
0
  6
CONTINUOUS
 62
     7
 10
-15.80000000000001
 20
-12.5
 30
0.0
 11
-24.0
 21
-12.5
 31
0.0
  0
LINE
  5
79FD
  8
0
  6
CONTINUOUS
 62
     7
 10
-25.0
 20
-3.3
 30
0.0
 11
-25.0
 21
-11.5
 31
0.0
  0
ARC
  5
7A07
  8
0
  6
CONTINUOUS
 62
     7
 10
12.5
 20
0.0
 30
0.0
 40
3.399999999999999
 50
63.10810049969222
 51
116.8918995003077
  0
ARC
  5
7A0B
  8
0
  6
CONTINUOUS
 62
     7
 10
16.17695526217004
 20
3.67695526217005
 30
0.0
 40
1.3
 50
265.8322170274694
 51
184.1677829725309
  0
ARC
  5
7A0C
  8
0
  6
CONTINUOUS
 62
     7
 10
16.17695526217004
 20
-3.67695526217005
 30
0.0
 40
1.3
 50
175.8322170274692
 51
94.16778297253087
  0
LINE
  5
7A11
  8
0
  6
CONTINUOUS
 62
     7
 10
15.5877554641702
 20
1.88567393615307
 30
0.0
 11
16.08247463901643
 21
2.3803931109993
 31
0.0
  0
LINE
  5
7A12
  8
0
  6
CONTINUOUS
 62
     7
 10
14.38567393615308
 20
3.0877554641702
 30
0.0
 11
14.8803931109993
 21
3.58247463901643
 31
0.0
  0
LINE
  5
7A13
  8
0
  6
CONTINUOUS
 62
     7
 10
15.5877554641702
 20
-1.88567393615307
 30
0.0
 11
16.08247463901643
 21
-2.3803931109993
 31
0.0
  0
LINE
  5
7A14
  8
0
  6
CONTINUOUS
 62
     7
 10
14.38567393615307
 20
-3.08775546417021
 30
0.0
 11
14.8803931109993
 21
-3.58247463901644
 31
0.0
  0
ARC
  5
7A15
  8
0
  6
CONTINUOUS
 62
     7
 10
12.5
 20
0.0
 30
0.0
 40
3.399999999999999
 50
333.1081004996923
 51
26.89189950030772
  0
ARC
  5
7A16
  8
0
  6
CONTINUOUS
 62
     7
 10
15.79988749852617
 20
1.67354190179711
 30
0.0
 40
0.3
 50
134.9999999999999
 51
206.8918995003077
  0
ARC
  5
7A17
  8
0
  6
CONTINUOUS
 62
     7
 10
14.17354190179711
 20
3.29988749852617
 30
0.0
 40
0.3
 50
243.1081004996923
 51
315.0000000000002
  0
ARC
  5
7A1E
  8
0
  6
CONTINUOUS
 62
     7
 10
15.79988749852617
 20
-1.67354190179711
 30
0.0
 40
0.3
 50
153.1081004996925
 51
225.0000000000001
  0
ARC
  5
7A1F
  8
0
  6
CONTINUOUS
 62
     7
 10
14.17354190179711
 20
-3.29988749852617
 30
0.0
 40
0.3
 50
44.99999999999982
 51
116.8918995003076
  0
ARC
  5
7A20
  8
0
  6
CONTINUOUS
 62
     7
 10
10.82645809820289
 20
-3.29988749852617
 30
0.0
 40
0.3
 50
63.10810049969244
 51
135.0000000000001
  0
ARC
  5
7A21
  8
0
  6
CONTINUOUS
 62
     7
 10
10.82645809820289
 20
3.29988749852617
 30
0.0
 40
0.3
 50
224.9999999999998
 51
296.8918995003078
  0
ARC
  5
7A22
  8
0
  6
CONTINUOUS
 62
     7
 10
9.20011250147383
 20
-1.67354190179711
 30
0.0
 40
0.3
 50
314.9999999999998
 51
26.89189950030746
  0
ARC
  5
7A23
  8
0
  6
CONTINUOUS
 62
     7
 10
9.20011250147383
 20
1.67354190179711
 30
0.0
 40
0.3
 50
333.1081004996923
 51
45.00000000000012
  0
LINE
  5
7A24
  8
0
  6
CONTINUOUS
 62
     7
 10
9.41224453582979
 20
1.88567393615307
 30
0.0
 11
8.91752536098356
 21
2.3803931109993
 31
0.0
  0
LINE
  5
7A25
  8
0
  6
CONTINUOUS
 62
     7
 10
10.61432606384692
 20
-3.08775546417021
 30
0.0
 11
10.11960688900069
 21
-3.58247463901644
 31
0.0
  0
LINE
  5
7A26
  8
0
  6
CONTINUOUS
 62
     7
 10
9.41224453582979
 20
-1.88567393615307
 30
0.0
 11
8.91752536098356
 21
-2.3803931109993
 31
0.0
  0
ARC
  5
7A27
  8
0
  6
CONTINUOUS
 62
     7
 10
8.82304473782995
 20
3.67695526217005
 30
0.0
 40
1.3
 50
355.832217027469
 51
274.1677829725308
  0
ARC
  5
7A28
  8
0
  6
CONTINUOUS
 62
     7
 10
8.82304473782995
 20
-3.67695526217005
 30
0.0
 40
1.3
 50
85.8322170274692
 51
4.16778297253078
  0
LINE
  5
7A29
  8
0
  6
CONTINUOUS
 62
     7
 10
10.61432606384692
 20
3.0877554641702
 30
0.0
 11
10.11960688900069
 21
3.58247463901643
 31
0.0
  0
ARC
  5
7A2A
  8
0
  6
CONTINUOUS
 62
     7
 10
12.5
 20
0.0
 30
0.0
 40
3.399999999999999
 50
153.1081004996923
 51
206.8918995003077
  0
ARC
  5
7A2B
  8
0
  6
CONTINUOUS
 62
     7
 10
12.5
 20
0.0
 30
0.0
 40
3.399999999999999
 50
243.1081004996923
 51
296.8918995003077
  0
LINE
  5
7A2C
  8
0
  6
CONTINUOUS
 62
     7
 10
4.25
 20
-11.2
 30
0.0
 11
-4.25
 21
-11.2
 31
0.0
  0
LINE
  5
7A2D
  8
0
  6
CONTINUOUS
 62
     7
 10
4.25
 20
11.2
 30
0.0
 11
-4.25
 21
11.2
 31
0.0
  0
LINE
  5
7A33
  8
0
  6
CONTINUOUS
 62
     7
 10
19.98122292025697
 20
10.05502525316941
 30
0.0
 11
20.56101730552665
 21
9.47523086789974
 31
0.0
  0
LINE
  5
7A35
  8
0
  6
CONTINUOUS
 62
     7
 10
23.75
 20
9.75
 30
0.0
 11
23.75
 21
7.97619766708754
 31
0.0
  0
LINE
  5
7A36
  8
0
  6
CONTINUOUS
 62
     7
 10
22.25
 20
11.25
 30
0.0
 11
20.47619766708755
 21
11.25
 31
0.0
  0
LINE
  5
7A38
  8
0
  6
CONTINUOUS
 62
     7
 10
21.97523086789974
 20
8.06101730552664
 30
0.0
 11
21.26812408671319
 21
7.35391052434009
 31
0.0
  0
LINE
  5
7A39
  8
0
  6
CONTINUOUS
 62
     7
 10
20.56101730552664
 20
9.47523086789973
 30
0.0
 11
19.85391052434009
 21
8.76812408671319
 31
0.0
  0
LINE
  5
7A3A
  8
0
  6
CONTINUOUS
 62
     7
 10
21.97523086789974
 20
8.06101730552664
 30
0.0
 11
22.55502525316942
 21
7.48122292025696
 31
0.0
  0
ARC
  5
7A3B
  8
0
  6
CONTINUOUS
 62
     7
 10
20.56101730552664
 20
8.06101730552664
 30
0.0
 40
1.0
 50
135.0
 51
314.9999999999998
  0
ARC
  5
7A40
  8
0
  6
CONTINUOUS
 62
     7
 10
23.05
 20
7.97619766708756
 30
0.0
 40
0.7
 50
225.0000000000001
 51
0.0
  0
ARC
  5
7A41
  8
0
  6
CONTINUOUS
 62
     7
 10
-12.5
 20
0.0
 30
0.0
 40
3.399999999999999
 50
63.10810049969227
 51
116.8918995003077
  0
ARC
  5
7A42
  8
0
  6
CONTINUOUS
 62
     7
 10
-12.5
 20
0.0
 30
0.0
 40
3.399999999999999
 50
333.1081004996923
 51
26.8918995003077
  0
ARC
  5
7A43
  8
0
  6
CONTINUOUS
 62
     7
 10
-12.5
 20
0.0
 30
0.0
 40
3.399999999999999
 50
243.1081004996923
 51
296.8918995003077
  0
ARC
  5
7A44
  8
0
  6
CONTINUOUS
 62
     7
 10
-14.17354190179711
 20
-3.29988749852617
 30
0.0
 40
0.3
 50
63.10810049969234
 51
135.0000000000001
  0
ARC
  5
7A45
  8
0
  6
CONTINUOUS
 62
     7
 10
-14.17354190179711
 20
3.29988749852617
 30
0.0
 40
0.3
 50
224.9999999999997
 51
296.8918995003077
  0
ARC
  5
7A46
  8
0
  6
CONTINUOUS
 62
     7
 10
-12.5
 20
0.0
 30
0.0
 40
3.399999999999999
 50
153.1081004996923
 51
206.8918995003077
  0
ARC
  5
7A47
  8
0
  6
CONTINUOUS
 62
     7
 10
-15.79988749852617
 20
-1.67354190179711
 30
0.0
 40
0.3
 50
314.9999999999998
 51
26.89189950030747
  0
ARC
  5
7A48
  8
0
  6
CONTINUOUS
 62
     7
 10
-15.79988749852617
 20
1.67354190179711
 30
0.0
 40
0.3
 50
333.1081004996923
 51
45.00000000000012
  0
LINE
  5
7A49
  8
0
  6
CONTINUOUS
 62
     7
 10
-15.5877554641702
 20
1.88567393615308
 30
0.0
 11
-16.08247463901643
 21
2.3803931109993
 31
0.0
  0
LINE
  5
7A4A
  8
0
  6
CONTINUOUS
 62
     7
 10
-14.38567393615308
 20
3.08775546417021
 30
0.0
 11
-14.8803931109993
 21
3.58247463901643
 31
0.0
  0
LINE
  5
7A4B
  8
0
  6
CONTINUOUS
 62
     7
 10
-14.38567393615307
 20
-3.0877554641702
 30
0.0
 11
-14.8803931109993
 21
-3.58247463901643
 31
0.0
  0
LINE
  5
7A4C
  8
0
  6
CONTINUOUS
 62
     7
 10
-15.5877554641702
 20
-1.88567393615307
 30
0.0
 11
-16.08247463901643
 21
-2.3803931109993
 31
0.0
  0
ARC
  5
7A4D
  8
0
  6
CONTINUOUS
 62
     7
 10
-16.17695526217004
 20
3.67695526217005
 30
0.0
 40
1.3
 50
355.832217027469
 51
274.1677829725307
  0
ARC
  5
7A4E
  8
0
  6
CONTINUOUS
 62
     7
 10
-16.17695526217004
 20
-3.67695526217005
 30
0.0
 40
1.3
 50
85.83221702746911
 51
4.16778297253078
  0
ARC
  5
7A4F
  8
0
  6
CONTINUOUS
 62
     7
 10
-10.82645809820289
 20
-3.29988749852617
 30
0.0
 40
0.3
 50
44.99999999999981
 51
116.8918995003076
  0
ARC
  5
7A50
  8
0
  6
CONTINUOUS
 62
     7
 10
-10.82645809820289
 20
3.29988749852617
 30
0.0
 40
0.3
 50
243.1081004996922
 51
315.0000000000002
  0
ARC
  5
7A51
  8
0
  6
CONTINUOUS
 62
     7
 10
-9.20011250147383
 20
-1.67354190179711
 30
0.0
 40
0.3
 50
153.1081004996925
 51
225.0000000000001
  0
ARC
  5
7A52
  8
0
  6
CONTINUOUS
 62
     7
 10
-9.20011250147383
 20
1.67354190179711
 30
0.0
 40
0.3
 50
134.9999999999999
 51
206.8918995003077
  0
LINE
  5
7A53
  8
0
  6
CONTINUOUS
 62
     7
 10
-9.41224453582979
 20
1.88567393615307
 30
0.0
 11
-8.91752536098356
 21
2.3803931109993
 31
0.0
  0
LINE
  5
7A54
  8
0
  6
CONTINUOUS
 62
     7
 10
-10.61432606384692
 20
-3.0877554641702
 30
0.0
 11
-10.11960688900069
 21
-3.58247463901643
 31
0.0
  0
LINE
  5
7A55
  8
0
  6
CONTINUOUS
 62
     7
 10
-9.41224453582979
 20
-1.88567393615307
 30
0.0
 11
-8.91752536098356
 21
-2.3803931109993
 31
0.0
  0
ARC
  5
7A56
  8
0
  6
CONTINUOUS
 62
     7
 10
-8.82304473782995
 20
3.67695526217005
 30
0.0
 40
1.3
 50
265.8322170274692
 51
184.1677829725309
  0
ARC
  5
7A57
  8
0
  6
CONTINUOUS
 62
     7
 10
-8.82304473782995
 20
-3.67695526217005
 30
0.0
 40
1.3
 50
175.8322170274692
 51
94.16778297253079
  0
LINE
  5
7A58
  8
0
  6
CONTINUOUS
 62
     7
 10
-10.61432606384692
 20
3.08775546417021
 30
0.0
 11
-10.11960688900069
 21
3.58247463901643
 31
0.0
  0
LINE
  5
7A5E
  8
0
  6
CONTINUOUS
 62
     7
 10
6.0
 20
-7.93933982822019
 30
0.0
 11
6.0
 21
7.93933982822018
 31
0.0
  0
LINE
  5
7A5F
  8
0
  6
CONTINUOUS
 62
     7
 10
-6.0
 20
-7.9393398282202
 30
0.0
 11
-6.0
 21
7.93933982822017
 31
0.0
  0
LINE
  5
7A60
  8
0
  6
CONTINUOUS
 62
     7
 10
5.25
 20
-10.2
 30
0.0
 11
5.25
 21
-8.68933982822019
 31
0.0
  0
LINE
  5
7A61
  8
0
  6
CONTINUOUS
 62
     7
 10
-5.25
 20
-10.2
 30
0.0
 11
-5.25
 21
-8.6893398282202
 31
0.0
  0
LINE
  5
7A62
  8
0
  6
CONTINUOUS
 62
     7
 10
6.0
 20
7.93933982822018
 30
0.0
 11
5.25
 21
8.68933982822019
 31
0.0
  0
LINE
  5
7A63
  8
0
  6
CONTINUOUS
 62
     7
 10
6.0
 20
-7.93933982822019
 30
0.0
 11
5.25
 21
-8.68933982822019
 31
0.0
  0
LINE
  5
7A64
  8
0
  6
CONTINUOUS
 62
     7
 10
-6.0
 20
-7.9393398282202
 30
0.0
 11
-5.25
 21
-8.6893398282202
 31
0.0
  0
LINE
  5
7A65
  8
0
  6
CONTINUOUS
 62
     7
 10
-6.0
 20
7.93933982822017
 30
0.0
 11
-5.25
 21
8.68933982822018
 31
0.0
  0
LINE
  5
7A66
  8
0
  6
CONTINUOUS
 62
     7
 10
-5.25
 20
8.68933982822017
 30
0.0
 11
-5.25
 21
10.2
 31
0.0
  0
LINE
  5
7A67
  8
0
  6
CONTINUOUS
 62
     7
 10
5.25
 20
8.68933982822019
 30
0.0
 11
5.25
 21
10.2
 31
0.0
  0
ARC
  5
7A68
  8
0
  6
CONTINUOUS
 62
     7
 10
-4.25
 20
10.2
 30
0.0
 40
1.0
 50
90.0
 51
180.0
  0
ARC
  5
7A69
  8
0
  6
CONTINUOUS
 62
     7
 10
4.25
 20
10.2
 30
0.0
 40
1.0
 50
0.0
 51
90.0
  0
ARC
  5
7A6A
  8
0
  6
CONTINUOUS
 62
     7
 10
4.25
 20
-10.2
 30
0.0
 40
1.0
 50
270.0
 51
0.0
  0
ARC
  5
7A6B
  8
0
  6
CONTINUOUS
 62
     7
 10
-4.25
 20
-10.2
 30
0.0
 40
1.0
 50
180.0
 51
270.0
  0
ARC
  5
7A6C
  8
0
  6
CONTINUOUS
 62
     7
 10
-24.0
 20
11.5
 30
0.0
 40
1.0
 50
90.0
 51
180.0
  0
ARC
  5
7A6D
  8
0
  6
CONTINUOUS
 62
     7
 10
-24.0
 20
-11.5
 30
0.0
 40
1.0
 50
180.0
 51
270.0
  0
ARC
  5
7A6E
  8
0
  6
CONTINUOUS
 62
     7
 10
24.0
 20
-11.5
 30
0.0
 40
1.0
 50
270.0
 51
0.0
  0
ARC
  5
7A6F
  8
0
  6
CONTINUOUS
 62
     7
 10
24.0
 20
11.5
 30
0.0
 40
1.0
 50
0.0
 51
90.0
  0
ARC
  5
7A70
  8
0
  6
CONTINUOUS
 62
     7
 10
22.25
 20
9.75
 30
0.0
 40
1.5
 50
0.0
 51
90.0
  0
ARC
  5
7AB4
  8
0
  6
CONTINUOUS
 62
     7
 10
20.47619766708755
 20
10.54999999999999
 30
0.0
 40
0.7
 50
90.0
 51
225.0000000000002
  0
LINE
  5
7AB5
  8
0
  6
CONTINUOUS
 62
     7
 10
19.98122292025697
 20
-10.05502525316941
 30
0.0
 11
20.56101730552665
 21
-9.47523086789974
 31
0.0
  0
LINE
  5
7AB6
  8
0
  6
CONTINUOUS
 62
     7
 10
21.97523086789974
 20
-8.06101730552664
 30
0.0
 11
22.55502525316942
 21
-7.48122292025696
 31
0.0
  0
LINE
  5
7AB7
  8
0
  6
CONTINUOUS
 62
     7
 10
23.75
 20
-9.75
 30
0.0
 11
23.75
 21
-7.97619766708754
 31
0.0
  0
LINE
  5
7AB8
  8
0
  6
CONTINUOUS
 62
     7
 10
22.25
 20
-11.25
 30
0.0
 11
20.47619766708755
 21
-11.25
 31
0.0
  0
ARC
  5
7AB9
  8
0
  6
CONTINUOUS
 62
     7
 10
22.25
 20
-9.75
 30
0.0
 40
1.5
 50
270.0
 51
0.0
  0
LINE
  5
7ABA
  8
0
  6
CONTINUOUS
 62
     7
 10
20.56101730552664
 20
-9.47523086789973
 30
0.0
 11
19.85391052434009
 21
-8.76812408671319
 31
0.0
  0
LINE
  5
7ABB
  8
0
  6
CONTINUOUS
 62
     7
 10
21.97523086789974
 20
-8.06101730552664
 30
0.0
 11
21.26812408671319
 21
-7.35391052434009
 31
0.0
  0
ARC
  5
7ABC
  8
0
  6
CONTINUOUS
 62
     7
 10
20.56101730552664
 20
-8.06101730552664
 30
0.0
 40
1.0
 50
45.00000000000006
 51
225.0
  0
ARC
  5
7ABD
  8
0
  6
CONTINUOUS
 62
     7
 10
23.05
 20
-7.97619766708756
 30
0.0
 40
0.7
 50
0.0
 51
134.9999999999999
  0
ARC
  5
7ABE
  8
0
  6
CONTINUOUS
 62
     7
 10
20.47619766708755
 20
-10.54999999999999
 30
0.0
 40
0.7
 50
134.9999999999998
 51
270.0
  0
LINE
  5
7ABF
  8
0
  6
CONTINUOUS
 62
     7
 10
-19.98122292025697
 20
10.05502525316941
 30
0.0
 11
-20.56101730552665
 21
9.47523086789974
 31
0.0
  0
LINE
  5
7AC0
  8
0
  6
CONTINUOUS
 62
     7
 10
-21.97523086789974
 20
8.06101730552664
 30
0.0
 11
-22.55502525316942
 21
7.48122292025696
 31
0.0
  0
LINE
  5
7AC1
  8
0
  6
CONTINUOUS
 62
     7
 10
-23.75
 20
9.75
 30
0.0
 11
-23.75
 21
7.97619766708755
 31
0.0
  0
LINE
  5
7AC2
  8
0
  6
CONTINUOUS
 62
     7
 10
-22.25
 20
11.25
 30
0.0
 11
-20.47619766708755
 21
11.25
 31
0.0
  0
ARC
  5
7AC3
  8
0
  6
CONTINUOUS
 62
     7
 10
-22.25
 20
9.75
 30
0.0
 40
1.5
 50
90.0
 51
180.0
  0
LINE
  5
7AC4
  8
0
  6
CONTINUOUS
 62
     7
 10
-20.56101730552664
 20
9.47523086789974
 30
0.0
 11
-19.85391052434009
 21
8.76812408671319
 31
0.0
  0
LINE
  5
7AC5
  8
0
  6
CONTINUOUS
 62
     7
 10
-21.97523086789974
 20
8.06101730552665
 30
0.0
 11
-21.26812408671319
 21
7.35391052434009
 31
0.0
  0
ARC
  5
7AC6
  8
0
  6
CONTINUOUS
 62
     7
 10
-20.56101730552664
 20
8.06101730552664
 30
0.0
 40
1.0
 50
225.0
 51
45.0
  0
ARC
  5
7AC7
  8
0
  6
CONTINUOUS
 62
     7
 10
-23.05
 20
7.97619766708756
 30
0.0
 40
0.7
 50
180.0
 51
314.9999999999998
  0
ARC
  5
7AC8
  8
0
  6
CONTINUOUS
 62
     7
 10
-20.47619766708755
 20
10.55
 30
0.0
 40
0.7
 50
314.9999999999998
 51
90.0
  0
LINE
  5
7AC9
  8
0
  6
CONTINUOUS
 62
     7
 10
-19.98122292025697
 20
-10.05502525316941
 30
0.0
 11
-20.56101730552665
 21
-9.47523086789973
 31
0.0
  0
LINE
  5
7ACA
  8
0
  6
CONTINUOUS
 62
     7
 10
-21.97523086789974
 20
-8.06101730552664
 30
0.0
 11
-22.55502525316942
 21
-7.48122292025696
 31
0.0
  0
LINE
  5
7ACB
  8
0
  6
CONTINUOUS
 62
     7
 10
-23.75
 20
-9.75
 30
0.0
 11
-23.75
 21
-7.97619766708754
 31
0.0
  0
LINE
  5
7ACC
  8
0
  6
CONTINUOUS
 62
     7
 10
-22.25
 20
-11.25
 30
0.0
 11
-20.47619766708755
 21
-11.24999999999999
 31
0.0
  0
ARC
  5
7ACD
  8
0
  6
CONTINUOUS
 62
     7
 10
-22.25
 20
-9.75
 30
0.0
 40
1.5
 50
180.0
 51
270.0
  0
LINE
  5
7ACE
  8
0
  6
CONTINUOUS
 62
     7
 10
-20.56101730552664
 20
-9.47523086789973
 30
0.0
 11
-19.85391052434009
 21
-8.76812408671318
 31
0.0
  0
LINE
  5
7ACF
  8
0
  6
CONTINUOUS
 62
     7
 10
-21.97523086789974
 20
-8.06101730552664
 30
0.0
 11
-21.26812408671319
 21
-7.35391052434009
 31
0.0
  0
ARC
  5
7AD0
  8
0
  6
CONTINUOUS
 62
     7
 10
-20.56101730552664
 20
-8.06101730552664
 30
0.0
 40
1.0
 50
315.0
 51
134.9999999999999
  0
ARC
  5
7AD1
  8
0
  6
CONTINUOUS
 62
     7
 10
-23.05
 20
-7.97619766708756
 30
0.0
 40
0.7
 50
45.00000000000012
 51
180.0
  0
ARC
  5
7AD2
  8
0
  6
CONTINUOUS
 62
     7
 10
-20.47619766708755
 20
-10.54999999999999
 30
0.0
 40
0.7
 50
270.0
 51
45.0000000000002
  0
VIEWPORT
  5
6D16
 67
     1
  8
0
  6
CONTINUOUS
 62
     7
 10
128.5
 20
97.5
 30
0.0
 40
622.8745664739884
 41
222.18
 68
     1
 69
     1
1001
ACAD
1000
MVIEW
1002
{
1070
    16
1010
0.0
1020
0.0
1030
0.0
1020
0.0
1030
0.0
1010
0.0
1020
0.0
1030
1.0
1020
0.0
1030
1.0
1040
0.0
1040
222.18
1040
128.5
1040
97.5
1040
50.0
1040
0.0
1040
0.0
1070
     0
1070
  1000
1070
     1
1070
     1
1070
     0
1070
     0
1070
     0
1070
     0
1040
0.0
1040
0.0
1040
0.0
1040
10.0
1040
10.0
1040
10.0
1040
10.0
1070
     0
1002
{
1002
}
1002
}
  0
VIEWPORT
  5
6D1B
 67
     1
  8
0
  6
CONTINUOUS
 62
     7
 10
128.5
 20
97.5
 30
0.0
 40
205.6
 41
156.0
 68
     2
 69
     2
1001
ACAD
1000
MVIEW
1002
{
1070
    16
1010
0.0
1020
0.0
1030
0.0
1020
0.0
1030
0.0
1010
0.0
1020
0.0
1030
1.0
1020
0.0
1030
1.0
1040
0.0
1040
268.3438213011192
1040
166.0671124396817
1040
53.83540718451303
1040
50.0
1040
0.0
1040
0.0
1070
     0
1070
  1000
1070
     1
1070
     3
1070
     0
1070
     0
1070
     0
1070
     0
1040
0.0
1040
0.0
1040
0.0
1040
10.0
1040
10.0
1040
10.0
1040
10.0
1070
     0
1002
{
1002
}
1002
}
  0
ENDSEC
  0
EOF
