solid OpenSCAD_Model
  facet normal -0.986394 0 0.164399
    outer loop
      vertex 0 20 0
      vertex 0 0 0
      vertex 5 10 30
    endloop
  endfacet
  facet normal 0 -0.948683 0.316228
    outer loop
      vertex 5 10 30
      vertex 0 0 0
      vertex 10 0 0
    endloop
  endfacet
  facet normal -0 -0 -1
    outer loop
      vertex 0 0 0
      vertex 0 20 0
      vertex 10 0 0
    endloop
  endfacet
  facet normal 0 0 -1
    outer loop
      vertex 10 0 0
      vertex 0 20 0
      vertex 10 20 0
    endloop
  endfacet
  facet normal -0 0.948683 0.316228
    outer loop
      vertex 10 20 0
      vertex 0 20 0
      vertex 5 10 30
    endloop
  endfacet
  facet normal 0.986394 -0 0.164399
    outer loop
      vertex 10 20 0
      vertex 5 10 30
      vertex 10 0 0
    endloop
  endfacet
  facet normal -0.986394 0 0.164399
    outer loop
      vertex 20 20 0
      vertex 20 0 0
      vertex 25 20 30
    endloop
  endfacet
  facet normal 0 -0.83205 0.5547
    outer loop
      vertex 25 20 30
      vertex 20 0 0
      vertex 30 0 0
    endloop
  endfacet
  facet normal -0 -0 -1
    outer loop
      vertex 20 0 0
      vertex 20 20 0
      vertex 30 0 0
    endloop
  endfacet
  facet normal 0 0 -1
    outer loop
      vertex 30 0 0
      vertex 20 20 0
      vertex 30 20 0
    endloop
  endfacet
  facet normal -0 1 0
    outer loop
      vertex 30 20 0
      vertex 20 20 0
      vertex 25 20 30
    endloop
  endfacet
  facet normal 0.986394 -0 0.164399
    outer loop
      vertex 30 20 0
      vertex 25 20 30
      vertex 30 0 0
    endloop
  endfacet
  facet normal -1 0 0
    outer loop
      vertex 40 20 0
      vertex 40 0 0
      vertex 40 20 30
    endloop
  endfacet
  facet normal 0 -0.83205 0.5547
    outer loop
      vertex 40 20 30
      vertex 40 0 0
      vertex 50 0 0
    endloop
  endfacet
  facet normal -0 -0 -1
    outer loop
      vertex 40 0 0
      vertex 40 20 0
      vertex 50 0 0
    endloop
  endfacet
  facet normal 0 0 -1
    outer loop
      vertex 50 0 0
      vertex 40 20 0
      vertex 50 20 0
    endloop
  endfacet
  facet normal -0 1 0
    outer loop
      vertex 50 20 0
      vertex 40 20 0
      vertex 40 20 30
    endloop
  endfacet
  facet normal 0.948683 -0 0.316228
    outer loop
      vertex 50 20 0
      vertex 40 20 30
      vertex 50 0 0
    endloop
  endfacet
  facet normal -1 -0 -0
    outer loop
      vertex 60 0 0
      vertex 60 0 30
      vertex 60 20 0
    endloop
  endfacet
  facet normal -1 0 0
    outer loop
      vertex 60 20 0
      vertex 60 0 30
      vertex 60 20 30
    endloop
  endfacet
  facet normal 0 -1 0
    outer loop
      vertex 60 0 30
      vertex 60 0 0
      vertex 70 0 0
    endloop
  endfacet
  facet normal -0 -0 -1
    outer loop
      vertex 60 0 0
      vertex 60 20 0
      vertex 70 0 0
    endloop
  endfacet
  facet normal 0 0 -1
    outer loop
      vertex 70 0 0
      vertex 60 20 0
      vertex 70 20 0
    endloop
  endfacet
  facet normal -0 1 0
    outer loop
      vertex 70 20 0
      vertex 60 20 0
      vertex 60 20 30
    endloop
  endfacet
  facet normal 0.948683 -0 0.316228
    outer loop
      vertex 60 20 30
      vertex 60 0 30
      vertex 70 0 0
    endloop
  endfacet
  facet normal 0.948683 -0 0.316228
    outer loop
      vertex 70 20 0
      vertex 60 20 30
      vertex 70 0 0
    endloop
  endfacet
  facet normal -0.986394 0 0.164399
    outer loop
      vertex 80 0 0
      vertex 85 0 30
      vertex 80 20 0
    endloop
  endfacet
  facet normal -0.986394 0 0.164399
    outer loop
      vertex 80 20 0
      vertex 85 0 30
      vertex 85 20 30
    endloop
  endfacet
  facet normal 0 -1 0
    outer loop
      vertex 85 0 30
      vertex 80 0 0
      vertex 90 0 0
    endloop
  endfacet
  facet normal -0 -0 -1
    outer loop
      vertex 80 0 0
      vertex 80 20 0
      vertex 90 0 0
    endloop
  endfacet
  facet normal 0 0 -1
    outer loop
      vertex 90 0 0
      vertex 80 20 0
      vertex 90 20 0
    endloop
  endfacet
  facet normal -0 1 0
    outer loop
      vertex 90 20 0
      vertex 80 20 0
      vertex 85 20 30
    endloop
  endfacet
  facet normal 0.986394 -0 0.164399
    outer loop
      vertex 85 20 30
      vertex 85 0 30
      vertex 90 0 0
    endloop
  endfacet
  facet normal 0.986394 -0 0.164399
    outer loop
      vertex 90 20 0
      vertex 85 20 30
      vertex 90 0 0
    endloop
  endfacet
endsolid OpenSCAD_Model
