  0
SECTION
  2
HEADER
  9
$ACADVER
  1
AC1009
  9
$DWGCODEPAGE
  3
ansi_1252
  9
$INSBASE
 10
0.0
 20
0.0
 30
0.0
  9
$EXTMIN
 10
0.0
 20
0.0
 30
0.0
  9
$EXTMAX
 10
297.0
 20
210.0
 30
0.0
  9
$LIMMIN
 10
0.0
 20
0.0
  9
$LIMMAX
 10
297.0
 20
210.0
  9
$ORTHOMODE
 70
     0
  9
$REGENMODE
 70
     1
  9
$FILLMODE
 70
     1
  9
$QTEXTMODE
 70
     0
  9
$MIRRTEXT
 70
     1
  9
$DRAGMODE
 70
     2
  9
$LTSCALE
 40
1.0
  9
$OSMODE
 70
     0
  9
$ATTMODE
 70
     1
  9
$TEXTSIZE
 40
3.5
  9
$TRACEWID
 40
1.0
  9
$TEXTSTYLE
  7
STANDARD
  9
$CLAYER
  8
0
  9
$CELTYPE
  6
BYLAYER
  9
$CECOLOR
 62
   256
  9
$DIMSCALE
 40
1.0
  9
$DIMASZ
 40
3.302
  9
$DIMEXO
 40
1.0
  9
$DIMDLI
 40
3.75
  9
$DIMRND
 40
0.0
  9
$DIMDLE
 40
0.0
  9
$DIMEXE
 40
1.0
  9
$DIMTP
 40
0.0
  9
$DIMTM
 40
0.0
  9
$DIMTXT
 40
3.5
  9
$DIMCEN
 40
2.5
  9
$DIMTSZ
 40
0.0
  9
$DIMTOL
 70
     0
  9
$DIMLIM
 70
     0
  9
$DIMTIH
 70
     1
  9
$DIMTOH
 70
     1
  9
$DIMSE1
 70
     0
  9
$DIMSE2
 70
     0
  9
$DIMTAD
 70
     1
  9
$DIMZIN
 70
     0
  9
$DIMBLK
  1

  9
$DIMASO
 70
     1
  9
$DIMSHO
 70
     1
  9
$DIMPOST
  1

  9
$DIMAPOST
  1

  9
$DIMALT
 70
     0
  9
$DIMALTD
 70
     3
  9
$DIMALTF
 40
0.0393700787
  9
$DIMLFAC
 40
1.0
  9
$DIMTOFL
 70
     1
  9
$DIMTVP
 40
0.0
  9
$DIMTIX
 70
     0
  9
$DIMSOXD
 70
     0
  9
$DIMSAH
 70
     0
  9
$DIMBLK1
  1

  9
$DIMBLK2
  1

  9
$DIMSTYLE
  2
ISO-25
  9
$DIMCLRD
 70
     0
  9
$DIMCLRE
 70
     0
  9
$DIMCLRT
 70
     0
  9
$DIMTFAC
 40
1.0
  9
$DIMGAP
 40
1.524
  9
$LUNITS
 70
     2
  9
$LUPREC
 70
     2
  9
$SKETCHINC
 40
1.0
  9
$FILLETRAD
 40
10.0
  9
$AUNITS
 70
     0
  9
$AUPREC
 70
     2
  9
$MENU
  1
.
  9
$ELEVATION
 40
0.0
  9
$PELEVATION
 40
0.0
  9
$THICKNESS
 40
0.0
  9
$LIMCHECK
 70
     0
  9
$CHAMFERA
 40
0.0
  9
$CHAMFERB
 40
0.0
  9
$SKPOLY
 70
     0
  9
$TDCREATE
 40
2456752.705968276
  9
$TDUPDATE
 40
2456752.619541933
  9
$TDINDWG
 40
0.0000000116
  9
$TDUSRTIMER
 40
0.0000000116
  9
$USRTIMER
 70
     1
  9
$ANGBASE
 50
0.0
  9
$ANGDIR
 70
     0
  9
$PDMODE
 70
     0
  9
$PDSIZE
 40
-1.0
  9
$PLINEWID
 40
0.0
  9
$COORDS
 70
     2
  9
$SPLFRAME
 70
     0
  9
$SPLINETYPE
 70
     6
  9
$SPLINESEGS
 70
     8
  9
$ATTDIA
 70
     0
  9
$ATTREQ
 70
     1
  9
$HANDLING
 70
     1
  9
$HANDSEED
  5
137
  9
$SURFTAB1
 70
     6
  9
$SURFTAB2
 70
     6
  9
$SURFTYPE
 70
     6
  9
$SURFU
 70
     6
  9
$SURFV
 70
     6
  9
$UCSNAME
  2

  9
$UCSORG
 10
0.0
 20
0.0
 30
0.0
  9
$UCSXDIR
 10
1.0
 20
0.0
 30
0.0
  9
$UCSYDIR
 10
0.0
 20
1.0
 30
0.0
  9
$PUCSNAME
  2

  9
$PUCSORG
 10
0.0
 20
0.0
 30
0.0
  9
$PUCSXDIR
 10
1.0
 20
0.0
 30
0.0
  9
$PUCSYDIR
 10
0.0
 20
1.0
 30
0.0
  9
$USERI1
 70
     0
  9
$USERI2
 70
     0
  9
$USERI3
 70
     0
  9
$USERI4
 70
     0
  9
$USERI5
 70
     0
  9
$USERR1
 40
0.0
  9
$USERR2
 40
0.0
  9
$USERR3
 40
0.0
  9
$USERR4
 40
0.0
  9
$USERR5
 40
0.0
  9
$WORLDVIEW
 70
     1
  9
$SHADEDGE
 70
     3
  9
$SHADEDIF
 70
    70
  9
$TILEMODE
 70
     1
  9
$MAXACTVP
 70
    64
  9
$PLIMCHECK
 70
     0
  9
$PEXTMIN
 10
1.00000000000000E+20
 20
1.00000000000000E+20
 30
1.00000000000000E+20
  9
$PEXTMAX
 10
-1.00000000000000E+20
 20
-1.00000000000000E+20
 30
-1.00000000000000E+20
  9
$PLIMMIN
 10
0.0
 20
0.0
  9
$PLIMMAX
 10
420.0
 20
297.0
  9
$UNITMODE
 70
     0
  9
$VISRETAIN
 70
     1
  9
$PLINEGEN
 70
     0
  9
$PSLTSCALE
 70
     1
  0
ENDSEC
  0
SECTION
  2
TABLES
  0
TABLE
  2
VPORT
 70
     1
  0
VPORT
  2
*ACTIVE
 70
     0
 10
0.0
 20
0.0
 11
1.0
 21
1.0
 12
0.00000000001086
 22
-0.00000000002858
 13
0.0
 23
0.0
 14
10.0
 24
10.0
 15
10.0
 25
10.0
 16
0.0
 26
0.0
 36
1.0
 17
0.0
 27
0.0
 37
0.0
 40
25.90800000005835
 41
1.2549889135255
 42
50.0
 43
0.0
 44
0.0
 50
0.0
 51
0.0
 71
    16
 72
  2000
 73
     1
 74
     3
 75
     0
 76
     0
 77
     0
 78
     0
  0
ENDTAB
  0
TABLE
  2
LTYPE
 70
     6
  0
LTYPE
  2
CONTINUOUS
 70
     0
  3
Solid line
 72
    65
 73
     0
 40
0.0
  0
LTYPE
  2
HIDDEN
 70
     0
  3
Hidden __ __ __ __ __ __ __ __ __ __ __ __ __ __
 72
    65
 73
     2
 40
1.905
 49
1.27
 49
-0.635
  0
LTYPE
  2
PHANTOM
 70
     0
  3
Phantom ______  __  __  ______  __  __  ______
 72
    65
 73
     6
 40
12.7
 49
6.35
 49
-1.27
 49
1.27
 49
-1.27
 49
1.27
 49
-1.27
  0
LTYPE
  2
CENTER
 70
     0
  3
Center ____ _ ____ _ ____ _ ____ _ ____ _ ____
 72
    65
 73
     4
 40
10.16
 49
6.35
 49
-1.27
 49
1.27
 49
-1.27
  0
LTYPE
  2
CENTERX2
 70
     0
  3
Center (2x) ________  __  ________  __  _____
 72
    65
 73
     4
 40
20.32
 49
12.7
 49
-2.54
 49
2.54
 49
-2.54
  0
LTYPE
  2
DOT2
 70
     0
  3
Dot (.5x) ........................................
 72
    65
 73
     2
 40
0.635
 49
0.0
 49
-0.635
  0
ENDTAB
  0
TABLE
  2
LAYER
 70
     1
  0
LAYER
  2
0
 70
     0
 62
     7
  6
CONTINUOUS
  0
ENDTAB
  0
TABLE
  2
STYLE
 70
     1
  0
STYLE
  2
STANDARD
 70
     0
 40
0.0
 41
1.0
 50
0.0
 71
     0
 42
3.5
  3
txt
  4

  0
ENDTAB
  0
TABLE
  2
VIEW
 70
     0
  0
ENDTAB
  0
TABLE
  2
UCS
 70
     0
  0
ENDTAB
  0
TABLE
  2
APPID
 70
     1
  0
APPID
  2
ACAD
 70
     0
  0
ENDTAB
  0
TABLE
  2
DIMSTYLE
 70
     1
  0
DIMSTYLE
  2
ISO-25
 70
     0
  3

  4

  5

  6

  7

 40
1.0
 41
2.5
 42
0.625
 43
3.75
 44
1.25
 45
0.0
 46
0.0
 47
0.0
 48
0.0
140
2.5
141
2.5
142
0.0
143
0.0393700787
144
1.0
145
0.0
146
1.0
147
0.625
 71
     0
 72
     0
 73
     0
 74
     0
 75
     0
 76
     0
 77
     1
 78
     8
170
     0
171
     3
172
     1
173
     0
174
     0
175
     0
176
     0
177
     0
178
     0
  0
ENDTAB
  0
ENDSEC
  0
SECTION
  2
BLOCKS
  0
BLOCK
  8
0
  2
$MODEL_SPACE
 70
     0
 10
0.0
 20
0.0
 30
0.0
  3
$MODEL_SPACE
  1

  0
ENDBLK
  5
21
  8
0
  0
BLOCK
 67
     1
  8
0
  2
$PAPER_SPACE
 70
     0
 10
0.0
 20
0.0
 30
0.0
  3
$PAPER_SPACE
  1

  0
ENDBLK
  5
1D
 67
     1
  8
0
  0
BLOCK
  8
0
  2
SW_CENTERMARKSYMBOL_0
 70
     0
 10
0.0
 20
0.0
 30
0.0
  3
SW_CENTERMARKSYMBOL_0
  1

  0
LINE
  5
BF
  8
0
  6
CONTINUOUS
 62
     0
 10
0.0
 20
0.0
 30
0.0
 11
0.0
 21
2.5
 31
0.0
  0
LINE
  5
C0
  8
0
  6
CONTINUOUS
 62
     0
 10
0.0
 20
0.0
 30
0.0
 11
-2.5
 21
0.0
 31
0.0
  0
LINE
  5
C1
  8
0
  6
CONTINUOUS
 62
     0
 10
0.0
 20
0.0
 30
0.0
 11
0.0
 21
-2.5
 31
0.0
  0
LINE
  5
C2
  8
0
  6
CONTINUOUS
 62
     0
 10
0.0
 20
0.0
 30
0.0
 11
2.5
 21
0.0
 31
0.0
  0
LINE
  5
C3
  8
0
  6
CONTINUOUS
 62
     0
 10
0.0
 20
5.0
 30
0.0
 11
0.0
 21
5.1035
 31
0.0
  0
LINE
  5
C4
  8
0
  6
CONTINUOUS
 62
     0
 10
-5.0
 20
0.0
 30
0.0
 11
-5.1035
 21
0.0
 31
0.0
  0
LINE
  5
C5
  8
0
  6
CONTINUOUS
 62
     0
 10
0.0
 20
-5.0
 30
0.0
 11
0.0
 21
-5.1035
 31
0.0
  0
LINE
  5
C6
  8
0
  6
CONTINUOUS
 62
     0
 10
5.0
 20
0.0
 30
0.0
 11
5.1035
 21
0.0
 31
0.0
  0
ENDBLK
  5
BE
  8
0
  0
ENDSEC
  0
SECTION
  2
ENTITIES
  0
LINE
  5
6F
  8
0
  6
CONTINUOUS
 62
     7
 10
10.49019999999999
 20
-6.4049490788
 30
0.0
 11
10.49019999999999
 21
6.3985286021
 31
0.0
  0
ARC
  5
70
  8
0
  6
CONTINUOUS
 62
     7
 10
9.43004967210001
 20
6.36893675570001
 30
0.0
 40
1.060563244306353
 50
1.59887492839994
 51
132.1637554544
  0
LINE
  5
71
  8
0
  6
CONTINUOUS
 62
     7
 10
8.71814465150001
 20
7.1550573806
 30
0.0
 11
5.43434112220001
 21
3.8713370259
 31
0.0
  0
ARC
  5
72
  8
0
  6
CONTINUOUS
 62
     7
 10
7.67937671959999
 20
1.6262445631
 30
0.0
 40
3.175000000000722
 50
134.9992743757001
 51
180.0
  0
LINE
  5
73
  8
0
  6
CONTINUOUS
 62
     7
 10
4.5043767196
 20
1.6262445631
 30
0.0
 11
4.5043767196
 21
-1.6261627551
 31
0.0
  0
ARC
  5
74
  8
0
  6
CONTINUOUS
 62
     7
 10
7.67937671959999
 20
-1.6261627551
 30
0.0
 40
3.175000000001148
 50
180.0
 51
225.0008606837001
  0
LINE
  5
75
  8
0
  6
CONTINUOUS
 62
     7
 10
5.43434641440001
 20
-3.8712605099
 30
0.0
 11
8.7183640273
 21
-7.1551794608
 31
0.0
  0
ARC
  5
76
  8
0
  6
CONTINUOUS
 62
     7
 10
9.43024494509999
 20
-6.3690370093
 30
0.0
 40
1.060563244306269
 50
227.8380012331003
 51
358.059518433
  0
LINE
  5
77
  8
0
  6
CONTINUOUS
 62
     7
 10
-5.43434641440001
 20
3.8712605099
 30
0.0
 11
-8.7183640273
 21
7.1551794608
 31
0.0
  0
ARC
  5
78
  8
0
  6
CONTINUOUS
 62
     7
 10
-9.43024494509999
 20
6.3690370093
 30
0.0
 40
1.060563244306446
 50
47.83800123310036
 51
178.0595184329998
  0
LINE
  5
79
  8
0
  6
CONTINUOUS
 62
     7
 10
-10.49019999999999
 20
6.4049490788
 30
0.0
 11
-10.49019999999999
 21
-6.3985286021
 31
0.0
  0
ARC
  5
7A
  8
0
  6
CONTINUOUS
 62
     7
 10
-9.43004967210001
 20
-6.36893675570001
 30
0.0
 40
1.060563244306448
 50
181.5988749283999
 51
312.1637554543997
  0
LINE
  5
7B
  8
0
  6
CONTINUOUS
 62
     7
 10
-8.71814465150001
 20
-7.1550573806
 30
0.0
 11
-5.43434112220001
 21
-3.8713370259
 31
0.0
  0
ARC
  5
7C
  8
0
  6
CONTINUOUS
 62
     7
 10
-7.67937671959999
 20
-1.6262445631
 30
0.0
 40
3.174999999999358
 50
314.9992743756
 51
0.0
  0
LINE
  5
7D
  8
0
  6
CONTINUOUS
 62
     7
 10
-4.5043767196
 20
-1.6262445631
 30
0.0
 11
-4.5043767196
 21
1.6261627551
 31
0.0
  0
ARC
  5
7E
  8
0
  6
CONTINUOUS
 62
     7
 10
-7.67937671959999
 20
1.6261627551
 30
0.0
 40
3.174999999999699
 50
0.0
 51
45.00086068370014
  0
CIRCLE
  5
7F
  8
0
  6
CONTINUOUS
 62
     7
 10
0.0
 20
0.0
 30
0.0
 40
2.603499999999968
  0
LINE
  5
80
  8
0
  6
CONTINUOUS
 62
     7
 10
-3.8712605099
 20
-5.4343464144
 30
0.0
 11
-7.15517946080001
 21
-8.7183640273
 31
0.0
  0
ARC
  5
81
  8
0
  6
CONTINUOUS
 62
     7
 10
-6.3690370093
 20
-9.4302449451
 30
0.0
 40
1.060563244306436
 50
137.8380012331004
 51
268.0595184330004
  0
LINE
  5
82
  8
0
  6
CONTINUOUS
 62
     7
 10
-6.4049490788
 20
-10.4902
 30
0.0
 11
6.39852860209999
 21
-10.4902
 31
0.0
  0
ARC
  5
83
  8
0
  6
CONTINUOUS
 62
     7
 10
6.36893675569999
 20
-9.4300496721
 30
0.0
 40
1.060563244306599
 50
271.5988749284002
 51
42.16375545439963
  0
LINE
  5
84
  8
0
  6
CONTINUOUS
 62
     7
 10
7.1550573806
 20
-8.7181446515
 30
0.0
 11
3.8713370259
 21
-5.4343411222
 31
0.0
  0
ARC
  5
85
  8
0
  6
CONTINUOUS
 62
     7
 10
1.62624456309999
 20
-7.6793767196
 30
0.0
 40
3.174999999999745
 50
44.99927437569991
 51
90.0
  0
LINE
  5
86
  8
0
  6
CONTINUOUS
 62
     7
 10
1.62624456309999
 20
-4.5043767196
 30
0.0
 11
-1.62616275510001
 21
-4.5043767196
 31
0.0
  0
ARC
  5
87
  8
0
  6
CONTINUOUS
 62
     7
 10
-1.62616275510001
 20
-7.6793767196
 30
0.0
 40
3.175000000000367
 50
90.0
 51
135.0008606837
  0
LINE
  5
88
  8
0
  6
CONTINUOUS
 62
     7
 10
12.69999999999999
 20
-9.5504
 30
0.0
 11
12.69999999999999
 21
-6.604
 31
0.0
  0
ARC
  5
89
  8
0
  6
CONTINUOUS
 62
     7
 10
12.69999985800001
 20
-6.09600014199999
 30
0.0
 40
0.5079998579781402
 50
89.99998398179973
 51
270.0000160182003
  0
LINE
  5
8A
  8
0
  6
CONTINUOUS
 62
     7
 10
12.69999999999999
 20
-5.588000284
 30
0.0
 11
12.69999999999999
 21
5.58799999999999
 31
0.0
  0
ARC
  5
8B
  8
0
  6
CONTINUOUS
 62
     7
 10
12.69999985800001
 20
6.095999858
 30
0.0
 40
0.5079998579782398
 50
89.99998398179973
 51
270.0000160182003
  0
LINE
  5
8C
  8
0
  6
CONTINUOUS
 62
     7
 10
12.69999999999999
 20
6.603999716
 30
0.0
 11
12.69999999999999
 21
9.5504
 31
0.0
  0
ARC
  5
8D
  8
0
  6
CONTINUOUS
 62
     7
 10
12.69999985800001
 20
10.058399858
 30
0.0
 40
0.507999857978254
 50
89.99998398179973
 51
270.0000160182003
  0
LINE
  5
8E
  8
0
  6
CONTINUOUS
 62
     7
 10
12.69999999999999
 20
10.56639971600001
 30
0.0
 11
12.69999999999999
 21
10.59180000000001
 31
0.0
  0
ARC
  5
8F
  8
0
  6
CONTINUOUS
 62
     7
 10
10.59180000000001
 20
10.59180000000001
 30
0.0
 40
2.108199999999783
 50
0.0
 51
90.0
  0
LINE
  5
90
  8
0
  6
CONTINUOUS
 62
     7
 10
10.59180000000001
 20
12.7
 30
0.0
 11
10.56639999999999
 21
12.7
 31
0.0
  0
ARC
  5
91
  8
0
  6
CONTINUOUS
 62
     7
 10
10.05840000000001
 20
12.7
 30
0.0
 40
0.5080000000001519
 50
180.0
 51
0.0
  0
LINE
  5
92
  8
0
  6
CONTINUOUS
 62
     7
 10
9.5504
 20
12.7
 30
0.0
 11
6.60400000000001
 21
12.7
 31
0.0
  0
ARC
  5
93
  8
0
  6
CONTINUOUS
 62
     7
 10
6.096
 20
12.7
 30
0.0
 40
0.5080000000000666
 50
180.0
 51
0.0
  0
LINE
  5
94
  8
0
  6
CONTINUOUS
 62
     7
 10
5.58799999999999
 20
12.7
 30
0.0
 11
4.3561
 21
12.7
 31
0.0
  0
ARC
  5
95
  8
0
  6
CONTINUOUS
 62
     7
 10
4.3561
 20
11.5951
 30
0.0
 40
1.104899999999972
 50
90.0
 51
270.0
  0
LINE
  5
96
  8
0
  6
CONTINUOUS
 62
     7
 10
4.3561
 20
10.4902
 30
0.0
 11
6.4049490788
 21
10.4902
 31
0.0
  0
ARC
  5
97
  8
0
  6
CONTINUOUS
 62
     7
 10
6.3690370093
 20
9.4302449451
 30
0.0
 40
1.060563244306439
 50
317.8380012331003
 51
88.05951843300048
  0
LINE
  5
98
  8
0
  6
CONTINUOUS
 62
     7
 10
7.15517946080001
 20
8.7183640273
 30
0.0
 11
3.8712605099
 21
5.4343464144
 31
0.0
  0
ARC
  5
99
  8
0
  6
CONTINUOUS
 62
     7
 10
1.62616275510001
 20
7.6793767196
 30
0.0
 40
3.175000000000367
 50
270.0
 51
315.0008606837
  0
LINE
  5
9A
  8
0
  6
CONTINUOUS
 62
     7
 10
1.62616275510001
 20
4.5043767196
 30
0.0
 11
-1.62624456309999
 21
4.5043767196
 31
0.0
  0
ARC
  5
9B
  8
0
  6
CONTINUOUS
 62
     7
 10
-1.62624456309999
 20
7.6793767196
 30
0.0
 40
3.174999999999827
 50
224.9992743756999
 51
270.0
  0
LINE
  5
9C
  8
0
  6
CONTINUOUS
 62
     7
 10
-3.8713370259
 20
5.4343411222
 30
0.0
 11
-7.1550573806
 21
8.7181446515
 31
0.0
  0
ARC
  5
9D
  8
0
  6
CONTINUOUS
 62
     7
 10
-6.36893675569999
 20
9.4300496721
 30
0.0
 40
1.060563244306288
 50
91.59887492840069
 51
222.1637554544004
  0
LINE
  5
9E
  8
0
  6
CONTINUOUS
 62
     7
 10
-6.39852860209999
 20
10.4902
 30
0.0
 11
-4.3561
 21
10.4902
 31
0.0
  0
ARC
  5
9F
  8
0
  6
CONTINUOUS
 62
     7
 10
-4.3561
 20
11.5951
 30
0.0
 40
1.104899999999972
 50
270.0
 51
90.0
  0
LINE
  5
A0
  8
0
  6
CONTINUOUS
 62
     7
 10
-4.3561
 20
12.7
 30
0.0
 11
-5.58799999999999
 21
12.7
 31
0.0
  0
ARC
  5
A1
  8
0
  6
CONTINUOUS
 62
     7
 10
-6.096
 20
12.7
 30
0.0
 40
0.5080000000000666
 50
180.0
 51
0.0
  0
LINE
  5
A2
  8
0
  6
CONTINUOUS
 62
     7
 10
-6.60400000000001
 20
12.7
 30
0.0
 11
-9.5504
 21
12.7
 31
0.0
  0
ARC
  5
A3
  8
0
  6
CONTINUOUS
 62
     7
 10
-10.05840000000001
 20
12.7
 30
0.0
 40
0.5080000000001803
 50
180.0
 51
0.0
  0
LINE
  5
A4
  8
0
  6
CONTINUOUS
 62
     7
 10
-10.56639999999999
 20
12.7
 30
0.0
 11
-10.59180000000001
 21
12.7
 31
0.0
  0
ARC
  5
A5
  8
0
  6
CONTINUOUS
 62
     7
 10
-10.59180000000001
 20
10.59180000000001
 30
0.0
 40
2.108200000000011
 50
90.0
 51
180.0
  0
LINE
  5
A6
  8
0
  6
CONTINUOUS
 62
     7
 10
-12.69999999999999
 20
10.59180000000001
 30
0.0
 11
-12.69999999999999
 21
10.5664
 31
0.0
  0
ARC
  5
A7
  8
0
  6
CONTINUOUS
 62
     7
 10
-12.70000014199999
 20
10.058399858
 30
0.0
 40
0.5080001420218195
 50
270.0000160182009
 51
89.99998398179908
  0
LINE
  5
A8
  8
0
  6
CONTINUOUS
 62
     7
 10
-12.69999999999999
 20
9.550399716
 30
0.0
 11
-12.69999999999999
 21
6.604
 31
0.0
  0
ARC
  5
A9
  8
0
  6
CONTINUOUS
 62
     7
 10
-12.70000014199999
 20
6.095999858
 30
0.0
 40
0.5080001420218195
 50
270.0000160182009
 51
89.99998398179908
  0
LINE
  5
AA
  8
0
  6
CONTINUOUS
 62
     7
 10
-12.69999999999999
 20
5.587999716
 30
0.0
 11
-12.69999999999999
 21
-5.58799999999999
 31
0.0
  0
ARC
  5
AB
  8
0
  6
CONTINUOUS
 62
     7
 10
-12.70000014199999
 20
-6.09600014199999
 30
0.0
 40
0.5080001420218195
 50
270.0000160182009
 51
89.99998398179908
  0
LINE
  5
AC
  8
0
  6
CONTINUOUS
 62
     7
 10
-12.69999999999999
 20
-6.60400028399999
 30
0.0
 11
-12.69999999999999
 21
-9.5504
 31
0.0
  0
ARC
  5
AD
  8
0
  6
CONTINUOUS
 62
     7
 10
-12.70000014199999
 20
-10.058400142
 30
0.0
 40
0.5080001420218195
 50
270.0000160182009
 51
89.99998398179908
  0
LINE
  5
AE
  8
0
  6
CONTINUOUS
 62
     7
 10
-12.69999999999999
 20
-10.566400284
 30
0.0
 11
-12.69999999999999
 21
-10.59180000000001
 31
0.0
  0
ARC
  5
AF
  8
0
  6
CONTINUOUS
 62
     7
 10
-10.59180000000001
 20
-10.59180000000001
 30
0.0
 40
2.108199999999897
 50
180.0
 51
270.0
  0
LINE
  5
B0
  8
0
  6
CONTINUOUS
 62
     7
 10
-10.59180000000001
 20
-12.7
 30
0.0
 11
-10.56639999999999
 21
-12.7
 31
0.0
  0
ARC
  5
B1
  8
0
  6
CONTINUOUS
 62
     7
 10
-10.05840000000001
 20
-12.700000284
 30
0.0
 40
0.507999999999947
 50
0.00003202504833
 51
179.9999679749517
  0
LINE
  5
B2
  8
0
  6
CONTINUOUS
 62
     7
 10
-9.5504
 20
-12.7
 30
0.0
 11
-6.60400000000001
 21
-12.7
 31
0.0
  0
ARC
  5
B3
  8
0
  6
CONTINUOUS
 62
     7
 10
-6.096
 20
-12.700000284
 30
0.0
 40
0.508000000000146
 50
0.00003202504833
 51
179.9999679749517
  0
LINE
  5
B4
  8
0
  6
CONTINUOUS
 62
     7
 10
-5.58799999999999
 20
-12.7
 30
0.0
 11
5.58799999999999
 21
-12.7
 31
0.0
  0
ARC
  5
B5
  8
0
  6
CONTINUOUS
 62
     7
 10
6.096
 20
-12.700000284
 30
0.0
 40
0.5080000000000323
 50
0.00003202504833
 51
179.9999679749517
  0
LINE
  5
B6
  8
0
  6
CONTINUOUS
 62
     7
 10
6.60400000000001
 20
-12.7
 30
0.0
 11
9.5504
 21
-12.7
 31
0.0
  0
ARC
  5
B7
  8
0
  6
CONTINUOUS
 62
     7
 10
10.05840000000001
 20
-12.700000284
 30
0.0
 40
0.5080000000000323
 50
0.00003202504833
 51
179.9999679749517
  0
LINE
  5
B8
  8
0
  6
CONTINUOUS
 62
     7
 10
10.56639999999999
 20
-12.7
 30
0.0
 11
10.59180000000001
 21
-12.7
 31
0.0
  0
ARC
  5
B9
  8
0
  6
CONTINUOUS
 62
     7
 10
10.59180000000001
 20
-10.59180000000001
 30
0.0
 40
2.108200000000011
 50
270.0
 51
0.0
  0
LINE
  5
BA
  8
0
  6
CONTINUOUS
 62
     7
 10
12.69999999999999
 20
-10.59180000000001
 30
0.0
 11
12.69999999999999
 21
-10.5664
 31
0.0
  0
ARC
  5
BB
  8
0
  6
CONTINUOUS
 62
     7
 10
12.69999999999999
 20
-10.05840000000001
 30
0.0
 40
0.5080000000000524
 50
90.0
 51
270.0
  0
INSERT
  5
C7
  8
0
  6
CONTINUOUS
 62
     7
  2
SW_CENTERMARKSYMBOL_0
 10
0.0
 20
0.0
 30
0.0
  0
ENDSEC
  0
EOF
